<svg width="354" height="50" viewBox="0 0 354 50" fill="none" xmlns="http://www.w3.org/2000/svg">
<rect x="187" width="167" height="50" rx="25" fill="black"/>
<path fill-rule="evenodd" clip-rule="evenodd" d="M260.71 12.3699C260.71 12.5566 260.774 12.7166 260.9 12.8499C261.034 12.9766 261.194 13.0399 261.38 13.0399C261.567 13.0399 261.727 12.9749 261.86 12.8449C261.994 12.7149 262.06 12.5566 262.06 12.3699C262.06 12.1766 261.994 12.0149 261.86 11.8849C261.727 11.7549 261.567 11.6899 261.38 11.6899C261.194 11.6899 261.035 11.7566 260.905 11.8899C260.775 12.0233 260.71 12.1833 260.71 12.3699ZM247.25 18.9999H248.04V15.5299H244.65V16.4099H247.11C247.097 16.6099 247.049 16.8099 246.965 17.0099C246.882 17.2099 246.759 17.4083 246.595 17.6049C246.432 17.8016 246.205 17.9599 245.915 18.0799C245.625 18.1999 245.294 18.2599 244.92 18.2599C244.24 18.2599 243.659 18.0149 243.175 17.5249C242.692 17.0349 242.45 16.3433 242.45 15.4499C242.45 14.5633 242.697 13.8766 243.19 13.3899C243.684 12.9033 244.274 12.6599 244.96 12.6599C245.507 12.6599 245.979 12.8016 246.375 13.0849C246.772 13.3683 247.05 13.7666 247.21 14.2799L248.1 13.8999C247.894 13.2533 247.509 12.7349 246.945 12.3449C246.382 11.9549 245.72 11.7599 244.96 11.7599C244.36 11.7599 243.799 11.8966 243.275 12.1699C242.752 12.4433 242.317 12.8666 241.97 13.4399C241.624 14.0133 241.45 14.6833 241.45 15.4499C241.45 16.2166 241.615 16.8866 241.945 17.4599C242.275 18.0333 242.697 18.4583 243.21 18.7349C243.724 19.0116 244.284 19.1499 244.89 19.1499C245.444 19.1499 245.917 19.0366 246.31 18.8099C246.704 18.5833 246.987 18.3133 247.16 17.9999L247.25 18.9999ZM252.69 16.0999H250.06C250.08 15.7666 250.21 15.4783 250.45 15.2349C250.69 14.9916 250.997 14.8699 251.37 14.8699C251.784 14.8699 252.104 14.9849 252.33 15.2149C252.557 15.4449 252.677 15.7399 252.69 16.0999ZM252.83 17.3499L253.64 17.6299C253.5 18.0766 253.24 18.4416 252.86 18.7249C252.48 19.0083 252.02 19.1499 251.48 19.1499C250.807 19.1499 250.235 18.9183 249.765 18.4549C249.295 17.9916 249.06 17.3666 249.06 16.5799C249.06 15.8466 249.287 15.2399 249.74 14.7599C250.194 14.2799 250.734 14.0399 251.36 14.0399C252.087 14.0399 252.654 14.2683 253.06 14.7249C253.467 15.1816 253.67 15.7933 253.67 16.5599C253.67 16.6799 253.664 16.7799 253.65 16.8599H250.03C250.037 17.2866 250.179 17.6366 250.455 17.9099C250.732 18.1833 251.074 18.3199 251.48 18.3199C252.167 18.3199 252.617 17.9966 252.83 17.3499ZM256.13 14.1899V12.6699H255.27V13.4499C255.27 13.6699 255.209 13.8483 255.085 13.9849C254.962 14.1216 254.777 14.1899 254.53 14.1899H254.27V15.0399H255.19V17.6799C255.19 18.1133 255.31 18.4499 255.55 18.6899C255.79 18.9299 256.117 19.0499 256.53 19.0499C256.797 19.0499 257.01 19.0199 257.17 18.9599V18.1599C257.064 18.1866 256.94 18.1999 256.8 18.1999C256.56 18.1999 256.389 18.1466 256.285 18.0399C256.182 17.9333 256.13 17.7666 256.13 17.5399V15.0399H257.17V14.1899H256.13ZM261.85 18.9999H260.92V14.1899H261.85V18.9999ZM264.71 12.6699V14.1899H265.75V15.0399H264.71V17.5399C264.71 17.7666 264.762 17.9333 264.865 18.0399C264.969 18.1466 265.14 18.1999 265.38 18.1999C265.52 18.1999 265.644 18.1866 265.75 18.1599V18.9599C265.59 19.0199 265.377 19.0499 265.11 19.0499C264.697 19.0499 264.37 18.9299 264.13 18.6899C263.89 18.4499 263.77 18.1133 263.77 17.6799V15.0399H262.85V14.1899H263.11C263.357 14.1899 263.542 14.1216 263.665 13.9849C263.789 13.8483 263.85 13.6699 263.85 13.4499V12.6699H264.71ZM271.56 18.3099C271.14 18.3099 270.784 18.1599 270.49 17.8599C270.204 17.5533 270.06 17.1299 270.06 16.5899C270.06 16.0566 270.205 15.6383 270.495 15.3349C270.785 15.0316 271.14 14.8799 271.56 14.8799C271.98 14.8799 272.335 15.0316 272.625 15.3349C272.915 15.6383 273.06 16.0566 273.06 16.5899C273.06 17.1299 272.915 17.5516 272.625 17.8549C272.335 18.1583 271.98 18.3099 271.56 18.3099ZM269.79 14.7699C270.257 14.2833 270.847 14.0399 271.56 14.0399C272.274 14.0399 272.862 14.2816 273.325 14.7649C273.789 15.2483 274.02 15.8566 274.02 16.5899C274.02 17.3299 273.79 17.9416 273.33 18.4249C272.87 18.9083 272.28 19.1499 271.56 19.1499C270.84 19.1499 270.25 18.9083 269.79 18.4249C269.33 17.9416 269.1 17.3299 269.1 16.5899C269.1 15.8566 269.33 15.2499 269.79 14.7699ZM276.16 18.9999V16.2199C276.16 15.8399 276.259 15.5249 276.455 15.2749C276.652 15.0249 276.927 14.8999 277.28 14.8999C278.027 14.8999 278.4 15.3033 278.4 16.1099V18.9999H279.34V15.9499C279.34 15.3899 279.192 14.9333 278.895 14.5799C278.599 14.2266 278.174 14.0499 277.62 14.0499C276.954 14.0499 276.46 14.3266 276.14 14.8799V14.1899H275.22V18.9999H276.16Z" fill="#E6E0D3"/>
<path fill-rule="evenodd" clip-rule="evenodd" d="M252.424 30.256V36H250.872L250.728 34.56C250.232 35.392 249.064 36.24 247.256 36.24C244.296 36.24 241.672 34.064 241.672 30.32C241.672 26.592 244.44 24.416 247.384 24.416C250.136 24.416 251.896 26 252.504 27.872L250.696 28.56C250.312 27.28 249.192 26.192 247.384 26.192C245.544 26.192 243.624 27.504 243.624 30.32C243.624 33.088 245.416 34.48 247.368 34.48C249.656 34.48 250.52 32.912 250.616 31.936H246.872V30.256H252.424ZM255.832 32.096C255.832 33.712 256.872 34.576 258.008 34.576C259.16 34.576 260.184 33.728 260.184 32.096C260.184 30.48 259.16 29.648 258.008 29.648C256.872 29.648 255.832 30.48 255.832 32.096ZM258.008 27.968C255.688 27.968 253.976 29.712 253.976 32.096C253.976 34.496 255.688 36.24 258.008 36.24C260.344 36.24 262.056 34.496 262.056 32.096C262.056 29.712 260.344 27.968 258.008 27.968ZM265.096 32.096C265.096 33.712 266.136 34.576 267.272 34.576C268.424 34.576 269.448 33.728 269.448 32.096C269.448 30.48 268.424 29.648 267.272 29.648C266.136 29.648 265.096 30.48 265.096 32.096ZM267.272 27.968C264.952 27.968 263.24 29.712 263.24 32.096C263.24 34.496 264.952 36.24 267.272 36.24C269.608 36.24 271.32 34.496 271.32 32.096C271.32 29.712 269.608 27.968 267.272 27.968ZM276.264 39.28C274.2 39.28 272.76 38 272.552 36.432L274.264 35.984C274.392 36.944 275.144 37.664 276.216 37.664C277.688 37.664 278.424 36.912 278.424 35.328V34.512C278.088 35.12 277.304 35.648 276.168 35.648C274.088 35.648 272.568 34.048 272.568 31.856C272.568 29.776 274.024 28.064 276.168 28.064C277.384 28.064 278.136 28.56 278.472 29.2V28.208H280.264V35.264C280.264 37.344 279.192 39.28 276.264 39.28ZM276.472 34.064C275.256 34.064 274.44 33.216 274.44 31.856C274.44 30.528 275.288 29.664 276.472 29.664C277.624 29.664 278.472 30.528 278.472 31.856C278.472 33.2 277.656 34.064 276.472 34.064ZM284.392 24.416V36H282.536V24.416H284.392ZM288.088 31.248C288.152 30.416 288.824 29.52 289.992 29.52C291.272 29.52 291.88 30.336 291.912 31.248H288.088ZM290.168 34.64C291.288 34.64 291.864 34.048 292.12 33.28L293.688 33.776C293.272 35.136 292.04 36.24 290.168 36.24C288.056 36.24 286.184 34.704 286.184 32.064C286.184 29.6 288.008 27.968 289.976 27.968C292.376 27.968 293.784 29.552 293.784 32.016C293.784 32.32 293.752 32.576 293.736 32.608H288.04C288.088 33.792 289.016 34.64 290.168 34.64ZM301.608 29.872V26.352H303.608C304.824 26.352 305.56 27.04 305.56 28.128C305.56 29.2 304.824 29.872 303.608 29.872H301.608ZM307.512 28.112C307.512 30.112 306.072 31.568 303.896 31.568H301.608V36H299.688V24.656H303.896C306.072 24.656 307.512 26.128 307.512 28.112ZM311.016 36V24.416H309.16V36H311.016ZM315.576 36.24C313.944 36.24 312.936 35.12 312.936 33.888C312.936 32.496 313.96 31.728 315.288 31.536L317.288 31.232C317.736 31.168 317.864 30.944 317.864 30.672C317.864 30.016 317.416 29.488 316.392 29.488C315.416 29.488 314.872 30.112 314.792 30.896L313.096 30.512C313.24 29.168 314.456 27.968 316.376 27.968C318.776 27.968 319.688 29.328 319.688 30.88L319.689 34.9229C319.697 35.3097 319.727 35.6107 319.752 35.7973L319.784 36H318.056C318.04 35.952 317.976 35.632 317.976 35.008C317.608 35.6 316.84 36.24 315.576 36.24ZM315.928 34.784C315.192 34.784 314.792 34.304 314.792 33.776C314.792 33.136 315.256 32.816 315.832 32.72L317.864 32.416V32.768C317.864 34.288 316.968 34.784 315.928 34.784ZM322.312 39.152H324.296L329.256 28.208H327.288L325.192 33.136L322.952 28.208H320.856L324.184 35.072L322.312 39.152Z" fill="#E6E0D3"/>
<path d="M207.096 14.1296C207.04 14.3303 207 14.5455 207 14.7923V35.1068C207 35.3501 207.038 35.5643 207.093 35.7623L218.421 24.9604L207.096 14.1296Z" fill="#48A0DC"/>
<path d="M209.616 13.3406C209.089 13.0169 208.569 12.9359 208.13 13.0477L219.505 23.9264L222.842 20.7453L209.616 13.3406Z" fill="#88C057"/>
<path d="M227.717 23.4754L224.187 21.4988L220.571 24.9465L224.255 28.47L227.69 26.5714C229.365 25.6103 228.753 24.0615 227.717 23.4754Z" fill="#FFCC66"/>
<path d="M219.487 25.98L208.098 36.8392C208.543 36.9649 209.075 36.8902 209.616 36.5584L222.882 29.2275L219.487 25.98Z" fill="#ED7161"/>
<rect width="167" height="50" rx="25" fill="#E6E0D3"/>
<path fill-rule="evenodd" clip-rule="evenodd" d="M82.2099 18H81.2699V10.76H82.2099V18ZM54.8999 18H57.3599C58.3132 18 59.1166 17.6883 59.7699 17.065C60.4232 16.4417 60.7499 15.5767 60.7499 14.47C60.7499 13.3567 60.4266 12.485 59.7799 11.855C59.1332 11.225 58.3332 10.91 57.3799 10.91H54.8999V18ZM57.3299 17.13H55.8799V11.78H57.3499C58.0432 11.78 58.6149 12.0133 59.0649 12.48C59.5149 12.9467 59.7399 13.61 59.7399 14.47C59.7399 15.3233 59.5116 15.98 59.0549 16.44C58.5982 16.9 58.0232 17.13 57.3299 17.13ZM62.9899 16.86C63.2832 17.16 63.6399 17.31 64.0599 17.31C64.4799 17.31 64.8349 17.1583 65.1249 16.855C65.4149 16.5517 65.5599 16.13 65.5599 15.59C65.5599 15.0567 65.4149 14.6383 65.1249 14.335C64.8349 14.0317 64.4799 13.88 64.0599 13.88C63.6399 13.88 63.2849 14.0317 62.9949 14.335C62.7049 14.6383 62.5599 15.0567 62.5599 15.59C62.5599 16.13 62.7032 16.5533 62.9899 16.86ZM64.0599 13.04C63.3466 13.04 62.7566 13.2833 62.2899 13.77C61.8299 14.25 61.5999 14.8567 61.5999 15.59C61.5999 16.33 61.8299 16.9417 62.2899 17.425C62.7499 17.9083 63.3399 18.15 64.0599 18.15C64.7799 18.15 65.3699 17.9083 65.8299 17.425C66.2899 16.9417 66.5199 16.33 66.5199 15.59C66.5199 14.8567 66.2882 14.2483 65.8249 13.765C65.3616 13.2817 64.7732 13.04 64.0599 13.04ZM70.4299 13.19H71.3999L72.6499 16.81L73.7099 13.19H74.6999L73.1399 18H72.1699L70.8899 14.34L69.6399 18H68.6499L67.0699 13.19H68.0999L69.1799 16.81L70.4299 13.19ZM76.5899 18V15.22C76.5899 14.84 76.6882 14.525 76.8849 14.275C77.0816 14.025 77.3566 13.9 77.7099 13.9C78.4566 13.9 78.8299 14.3033 78.8299 15.11V18H79.7699V14.95C79.7699 14.39 79.6216 13.9333 79.3249 13.58C79.0282 13.2267 78.6032 13.05 78.0499 13.05C77.3832 13.05 76.8899 13.3267 76.5699 13.88V13.19H75.6499V18H76.5899ZM85.8699 17.31C85.4499 17.31 85.0932 17.16 84.7999 16.86C84.5132 16.5533 84.3699 16.13 84.3699 15.59C84.3699 15.0567 84.5149 14.6383 84.8049 14.335C85.0949 14.0317 85.4499 13.88 85.8699 13.88C86.2899 13.88 86.6449 14.0317 86.9349 14.335C87.2249 14.6383 87.3699 15.0567 87.3699 15.59C87.3699 16.13 87.2249 16.5517 86.9349 16.855C86.6449 17.1583 86.2899 17.31 85.8699 17.31ZM84.0999 13.77C84.5666 13.2833 85.1566 13.04 85.8699 13.04C86.5832 13.04 87.1716 13.2817 87.6349 13.765C88.0982 14.2483 88.3299 14.8567 88.3299 15.59C88.3299 16.33 88.0999 16.9417 87.6399 17.425C87.1799 17.9083 86.5899 18.15 85.8699 18.15C85.1499 18.15 84.5599 17.9083 84.0999 17.425C83.6399 16.9417 83.4099 16.33 83.4099 15.59C83.4099 14.8567 83.6399 14.25 84.0999 13.77ZM89.6299 15.715C89.3632 15.965 89.2299 16.2967 89.2299 16.71C89.2299 17.1033 89.3799 17.4417 89.6799 17.725C89.9799 18.0083 90.3666 18.15 90.8399 18.15C91.2266 18.15 91.5482 18.07 91.8049 17.91C92.0616 17.75 92.2566 17.5633 92.3899 17.35C92.3899 17.5833 92.4066 17.8 92.4399 18H93.3599C93.3199 17.76 93.2999 17.4967 93.2999 17.21V14.8C93.2999 14.2867 93.1366 13.865 92.8099 13.535C92.4832 13.205 91.9799 13.04 91.2999 13.04C90.7799 13.04 90.3332 13.185 89.9599 13.475C89.5866 13.765 89.3766 14.14 89.3299 14.6L90.2299 14.81C90.2632 14.5167 90.3732 14.2817 90.5599 14.105C90.7466 13.9283 90.9999 13.84 91.3199 13.84C91.6666 13.84 91.9266 13.92 92.0999 14.08C92.2732 14.24 92.3599 14.4467 92.3599 14.7C92.3599 14.9067 92.2366 15.0267 91.9899 15.06L90.6899 15.25C90.2499 15.31 89.8966 15.465 89.6299 15.715ZM90.9699 17.36C91.3899 17.36 91.7266 17.2467 91.9799 17.02C92.2332 16.7933 92.3599 16.4333 92.3599 15.94V15.72L90.8899 15.94C90.6766 15.9733 90.5066 16.05 90.3799 16.17C90.2532 16.29 90.1899 16.4533 90.1899 16.66C90.1899 16.8467 90.2616 17.01 90.4049 17.15C90.5482 17.29 90.7366 17.36 90.9699 17.36ZM95.6949 16.82C95.4449 16.5 95.3199 16.0867 95.3199 15.58C95.3199 15.08 95.4499 14.6733 95.7099 14.36C95.9699 14.0467 96.3132 13.89 96.7399 13.89C97.1666 13.89 97.5032 14.0433 97.7499 14.35C97.9966 14.6567 98.1199 15.06 98.1199 15.56C98.1199 16.0667 97.9932 16.4833 97.7399 16.81C97.4866 17.1367 97.1499 17.3 96.7299 17.3C96.2899 17.3 95.9449 17.14 95.6949 16.82ZM98.133 17.5294L98.1299 17.27C98.0032 17.5167 97.8116 17.7217 97.5549 17.885C97.2982 18.0483 96.9932 18.13 96.6399 18.13C95.9532 18.13 95.4016 17.8883 94.9849 17.405C94.5682 16.9217 94.3599 16.3133 94.3599 15.58C94.3599 14.88 94.5732 14.285 94.9999 13.795C95.4266 13.305 95.9732 13.06 96.6399 13.06C97.0332 13.06 97.3532 13.1383 97.5999 13.295C97.8466 13.4517 98.0166 13.6433 98.1099 13.87V10.76H99.0399V17.11C99.0399 17.4367 99.0566 17.7333 99.0899 18H98.1799C98.1549 17.86 98.1393 17.7031 98.133 17.5294ZM105.2 17.31C104.78 17.31 104.423 17.16 104.13 16.86C103.843 16.5533 103.7 16.13 103.7 15.59C103.7 15.0567 103.845 14.6383 104.135 14.335C104.425 14.0317 104.78 13.88 105.2 13.88C105.62 13.88 105.975 14.0317 106.265 14.335C106.555 14.6383 106.7 15.0567 106.7 15.59C106.7 16.13 106.555 16.5517 106.265 16.855C105.975 17.1583 105.62 17.31 105.2 17.31ZM103.43 13.77C103.897 13.2833 104.487 13.04 105.2 13.04C105.913 13.04 106.502 13.2817 106.965 13.765C107.428 14.2483 107.66 14.8567 107.66 15.59C107.66 16.33 107.43 16.9417 106.97 17.425C106.51 17.9083 105.92 18.15 105.2 18.15C104.48 18.15 103.89 17.9083 103.43 17.425C102.97 16.9417 102.74 16.33 102.74 15.59C102.74 14.8567 102.97 14.25 103.43 13.77ZM109.8 18V15.22C109.8 14.84 109.898 14.525 110.095 14.275C110.292 14.025 110.567 13.9 110.92 13.9C111.667 13.9 112.04 14.3033 112.04 15.11V18H112.98V14.95C112.98 14.39 112.832 13.9333 112.535 13.58C112.238 13.2267 111.813 13.05 111.26 13.05C110.593 13.05 110.1 13.3267 109.78 13.88V13.19H108.86V18H109.8ZM118.24 11.67V13.19H119.28V14.04H118.24V16.54C118.24 16.7667 118.292 16.9333 118.395 17.04C118.498 17.1467 118.67 17.2 118.91 17.2C119.05 17.2 119.173 17.1867 119.28 17.16V17.96C119.12 18.02 118.907 18.05 118.64 18.05C118.227 18.05 117.9 17.93 117.66 17.69C117.42 17.45 117.3 17.1133 117.3 16.68V14.04H116.38V13.19H116.64C116.887 13.19 117.072 13.1217 117.195 12.985C117.318 12.8483 117.38 12.67 117.38 12.45V11.67H118.24ZM121.47 18V15.17C121.483 14.7967 121.587 14.4917 121.78 14.255C121.973 14.0183 122.243 13.9 122.59 13.9C123.337 13.9 123.71 14.3033 123.71 15.11V18H124.65V14.95C124.65 14.39 124.502 13.9333 124.205 13.58C123.908 13.2267 123.483 13.05 122.93 13.05C122.277 13.05 121.79 13.2833 121.47 13.75V10.76H120.53V18H121.47ZM126.76 15.1H129.39C129.377 14.74 129.257 14.445 129.03 14.215C128.803 13.985 128.483 13.87 128.07 13.87C127.697 13.87 127.39 13.9917 127.15 14.235C126.91 14.4783 126.78 14.7667 126.76 15.1ZM130.34 16.63L129.53 16.35C129.317 16.9967 128.867 17.32 128.18 17.32C127.773 17.32 127.432 17.1833 127.155 16.91C126.878 16.6367 126.737 16.2867 126.73 15.86H130.35C130.363 15.78 130.37 15.68 130.37 15.56C130.37 14.7933 130.167 14.1817 129.76 13.725C129.353 13.2683 128.787 13.04 128.06 13.04C127.433 13.04 126.893 13.28 126.44 13.76C125.987 14.24 125.76 14.8467 125.76 15.58C125.76 16.3667 125.995 16.9917 126.465 17.455C126.935 17.9183 127.507 18.15 128.18 18.15C128.72 18.15 129.18 18.0083 129.56 17.725C129.94 17.4417 130.2 17.0767 130.34 16.63Z" fill="black"/>
<path fill-rule="evenodd" clip-rule="evenodd" d="M63.1202 37H65.2162L60.8002 25.656H58.5762L54.1602 37H56.1922L57.2482 34.152H62.0482L63.1202 37ZM59.6482 27.736L61.3762 32.376H57.9202L59.6482 27.736ZM68.4162 40.04V36.12C68.8162 36.712 69.6642 37.192 70.7842 37.192C73.0242 37.192 74.4482 35.432 74.4482 33.096C74.4482 30.792 73.1522 29.032 70.8482 29.032C69.6482 29.032 68.7522 29.592 68.3682 30.264V29.208H66.5762V40.04H68.4162ZM72.5922 33.096C72.5922 34.584 71.7282 35.544 70.4962 35.544C69.2802 35.544 68.4002 34.584 68.4002 33.096C68.4002 31.64 69.2802 30.68 70.4962 30.68C71.7442 30.68 72.5922 31.64 72.5922 33.096ZM78.0802 40.04V36.12C78.4802 36.712 79.3282 37.192 80.4482 37.192C82.6882 37.192 84.1122 35.432 84.1122 33.096C84.1122 30.792 82.8162 29.032 80.5122 29.032C79.3122 29.032 78.4162 29.592 78.0322 30.264V29.208H76.2402V40.04H78.0802ZM82.2562 33.096C82.2562 34.584 81.3922 35.544 80.1602 35.544C78.9442 35.544 78.0642 34.584 78.0642 33.096C78.0642 31.64 78.9442 30.68 80.1602 30.68C81.4082 30.68 82.2562 31.64 82.2562 33.096ZM97.4882 28.312C97.2322 27.048 96.1922 25.416 93.5202 25.416C91.4082 25.416 89.6642 26.984 89.6642 28.888C89.6642 30.584 90.8162 31.72 92.5442 32.072L94.1442 32.408C95.1202 32.616 95.6642 33.208 95.6642 33.944C95.6642 34.824 94.9602 35.512 93.6002 35.512C91.9682 35.512 91.1202 34.424 91.0082 33.24L89.2162 33.752C89.3922 35.384 90.7202 37.24 93.6002 37.24C96.1922 37.24 97.6162 35.56 97.6162 33.8C97.6162 32.2 96.5442 30.936 94.5442 30.536L92.9122 30.2C92.0322 30.008 91.5842 29.464 91.5842 28.744C91.5842 27.88 92.3842 27.112 93.5362 27.112C95.0562 27.112 95.6482 28.152 95.7602 28.856L97.4882 28.312ZM101.808 26.824H100.128V27.992C100.128 28.68 99.7602 29.208 98.9282 29.208H98.5282V30.856H99.9682V34.776C99.9682 36.232 100.864 37.096 102.304 37.096C102.976 37.096 103.328 36.968 103.44 36.92V35.384L103.235 35.4159C103.108 35.4323 102.946 35.448 102.8 35.448C102.112 35.448 101.808 35.16 101.808 34.472V30.856H103.424V29.208H101.808V26.824ZM108.72 35.576C107.584 35.576 106.544 34.712 106.544 33.096C106.544 31.48 107.584 30.648 108.72 30.648C109.872 30.648 110.896 31.48 110.896 33.096C110.896 34.728 109.872 35.576 108.72 35.576ZM108.72 28.968C106.4 28.968 104.688 30.712 104.688 33.096C104.688 35.496 106.4 37.24 108.72 37.24C111.056 37.24 112.768 35.496 112.768 33.096C112.768 30.712 111.056 28.968 108.72 28.968ZM119.12 29.16C119.04 29.144 118.848 29.112 118.624 29.112C117.6 29.112 116.736 29.608 116.368 30.456V29.208H114.56V37H116.416V33.288C116.416 31.832 117.072 31 118.512 31C118.704 31 118.912 31.016 119.12 31.048V29.16ZM121.936 32.248C122 31.416 122.672 30.52 123.84 30.52C125.12 30.52 125.728 31.336 125.76 32.248H121.936ZM125.968 34.28L127.536 34.776C127.12 36.136 125.888 37.24 124.016 37.24C121.904 37.24 120.032 35.704 120.032 33.064C120.032 30.6 121.856 28.968 123.824 28.968C126.224 28.968 127.632 30.552 127.632 33.016C127.632 33.32 127.6 33.576 127.584 33.608H121.888C121.936 34.792 122.864 35.64 124.016 35.64C125.136 35.64 125.712 35.048 125.968 34.28Z" fill="black"/>
<path fill-rule="evenodd" clip-rule="evenodd" d="M31.3938 14.5376C32.263 13.6005 32.8511 12.2986 32.6906 11C31.4371 11.0451 29.9185 11.7405 29.0204 12.6773C28.2133 13.5075 27.5079 14.8334 27.6963 16.1059C29.0955 16.2022 30.5228 15.4737 31.3938 14.5376ZM34.0616 23.502C34.0346 20.5912 36.3495 19.1944 36.4534 19.1258C35.1524 17.1502 33.125 16.8795 32.4037 16.8493C30.6791 16.6669 29.0385 17.902 28.1625 17.902C27.2897 17.902 25.9395 16.8737 24.5086 16.9009C22.628 16.9318 20.8947 18.035 19.9278 19.7834C17.974 23.3 19.4266 28.5109 21.3313 31.3629C22.2618 32.7597 23.3706 34.3261 24.8264 34.269C26.2303 34.2131 26.7604 33.3279 28.4561 33.3279C30.1509 33.3279 30.6278 34.269 32.1111 34.2407C33.6204 34.2131 34.5769 32.8174 35.5009 31.4171C36.5685 29.7983 37.008 28.23 37.0347 28.1505C37.0008 28.133 34.0923 26.979 34.0616 23.502Z" fill="black"/>
</svg>
