<svg width="21" height="21" viewBox="0 0 21 21" fill="none" xmlns="http://www.w3.org/2000/svg">
<g clip-path="url(#clip0_123_9966)">
<path d="M11.6293 1.31532C11.0458 0.602656 9.95599 0.602658 9.37257 1.31532L8.54601 2.32486C8.48936 2.39405 8.39486 2.41938 8.3112 2.38778L7.09063 1.92675C6.22901 1.60131 5.28518 2.14622 5.1362 3.05515L4.92518 4.3427C4.91071 4.43095 4.84154 4.50013 4.75328 4.5146L3.46573 4.72562C2.55681 4.8746 2.01189 5.81841 2.33734 6.68005L2.79836 7.90062C2.82996 7.98428 2.80464 8.07878 2.73545 8.13543L1.7259 8.96195C1.01324 9.54545 1.01324 10.6353 1.7259 11.2188L2.73545 12.0453C2.80464 12.1019 2.82996 12.1964 2.79836 12.2801L2.33734 13.5007C2.0119 14.3623 2.5568 15.3061 3.46573 15.4551L4.75328 15.6661C4.84154 15.6806 4.91071 15.7498 4.92518 15.838L5.1362 17.1255C5.28518 18.0344 6.229 18.5794 7.09063 18.2539L8.3112 17.7929C8.39486 17.7614 8.48936 17.7866 8.54601 17.8559L9.37257 18.8654C9.95599 19.578 11.0458 19.578 11.6293 18.8654L12.4558 17.8559C12.5125 17.7866 12.607 17.7614 12.6907 17.7929L13.9112 18.2539C14.7729 18.5794 15.7167 18.0344 15.8657 17.1255L16.0767 15.838C16.0912 15.7498 16.1603 15.6806 16.2486 15.6661L17.5362 15.4551C18.4451 15.3061 18.99 14.3623 18.6646 13.5007L18.2035 12.2801C18.1719 12.1964 18.1972 12.1019 18.2664 12.0453L19.276 11.2188C19.9887 10.6353 19.9887 9.54545 19.276 8.96195L18.2664 8.13543C18.1972 8.07878 18.1719 7.98428 18.2035 7.90062L18.6646 6.68005C18.99 5.81841 18.4451 4.8746 17.5362 4.72562L16.2486 4.5146C16.1603 4.50013 16.0912 4.43095 16.0767 4.3427L15.8657 3.05515C15.7167 2.14623 14.7729 1.6013 13.9112 1.92675L12.6907 2.38778C12.607 2.41938 12.5125 2.39405 12.4558 2.32486L11.6293 1.31532Z" fill="#3D88E0"/>
<path fill-rule="evenodd" clip-rule="evenodd" d="M15.5256 6.73176C15.7697 6.97584 15.7697 7.37157 15.5256 7.61565L9.69224 13.449C9.57507 13.5662 9.41607 13.632 9.25032 13.632C9.08457 13.632 8.92557 13.5662 8.80838 13.449L5.47505 10.1156C5.23097 9.87154 5.23097 9.47587 5.47505 9.23179C5.71912 8.9877 6.11486 8.9877 6.35893 9.23179L9.25032 12.1231L14.6417 6.73176C14.8858 6.48769 15.2815 6.48769 15.5256 6.73176Z" fill="#E6E0D3"/>
</g>
<defs>
<clipPath id="clip0_123_9966">
<rect width="20" height="20" fill="white" transform="translate(0.5 0.090332)"/>
</clipPath>
</defs>
</svg>
