<svg width="16" height="17" viewBox="0 0 16 17" fill="none" xmlns="http://www.w3.org/2000/svg">
<g clip-path="url(#clip0_123_9604)">
<path d="M9.33301 4.09031V2.75698H6.66634V4.09031H9.33301ZM2.66634 6.09031V12.0903C2.66634 12.457 2.96634 12.757 3.33301 12.757H12.6663C13.033 12.757 13.333 12.457 13.333 12.0903V6.09031C13.333 5.72365 13.033 5.42365 12.6663 5.42365H3.33301C2.96634 5.42365 2.66634 5.72365 2.66634 6.09031ZM13.333 4.09031C14.073 4.09031 14.6663 4.68365 14.6663 5.42365V12.757C14.6663 13.497 14.073 14.0903 13.333 14.0903H2.66634C1.92634 14.0903 1.33301 13.497 1.33301 12.757L1.33967 5.42365C1.33967 4.68365 1.92634 4.09031 2.66634 4.09031H5.33301V2.75698C5.33301 2.01698 5.92634 1.42365 6.66634 1.42365H9.33301C10.073 1.42365 10.6663 2.01698 10.6663 2.75698V4.09031H13.333Z" fill="#6F747A"/>
</g>
<defs>
<clipPath id="clip0_123_9604">
<rect width="16" height="16" fill="white" transform="translate(0 0.090332)"/>
</clipPath>
</defs>
</svg>
