<svg width="16" height="17" viewBox="0 0 16 17" fill="none" xmlns="http://www.w3.org/2000/svg">
<g clip-path="url(#clip0_123_9607)">
<path d="M5.99967 8.09031C7.28634 8.09031 8.33301 7.04365 8.33301 5.75698C8.33301 4.47031 7.28634 3.42365 5.99967 3.42365C4.71301 3.42365 3.66634 4.47031 3.66634 5.75698C3.66634 7.04365 4.71301 8.09031 5.99967 8.09031ZM5.99967 4.75698C6.55301 4.75698 6.99967 5.20365 6.99967 5.75698C6.99967 6.31031 6.55301 6.75698 5.99967 6.75698C5.44634 6.75698 4.99967 6.31031 4.99967 5.75698C4.99967 5.20365 5.44634 4.75698 5.99967 4.75698ZM5.99967 9.25698C4.43967 9.25698 1.33301 10.037 1.33301 11.5903V12.0903C1.33301 12.457 1.63301 12.757 1.99967 12.757H9.99967C10.3663 12.757 10.6663 12.457 10.6663 12.0903V11.5903C10.6663 10.037 7.55967 9.25698 5.99967 9.25698ZM2.89301 11.4236C3.45301 11.037 4.80634 10.5903 5.99967 10.5903C7.19301 10.5903 8.54634 11.037 9.10634 11.4236H2.89301ZM10.693 9.29698C11.4663 9.85698 11.9997 10.6036 11.9997 11.5903V12.757H13.9997C14.3663 12.757 14.6663 12.457 14.6663 12.0903V11.5903C14.6663 10.2436 12.333 9.47698 10.693 9.29698ZM9.99967 8.09031C11.2863 8.09031 12.333 7.04365 12.333 5.75698C12.333 4.47031 11.2863 3.42365 9.99967 3.42365C9.63967 3.42365 9.30634 3.51031 8.99967 3.65698C9.41967 4.25031 9.66634 4.97698 9.66634 5.75698C9.66634 6.53698 9.41967 7.26364 8.99967 7.85698C9.30634 8.00364 9.63967 8.09031 9.99967 8.09031Z" fill="#6F747A"/>
</g>
<defs>
<clipPath id="clip0_123_9607">
<rect width="16" height="16" fill="white" transform="translate(0 0.090332)"/>
</clipPath>
</defs>
</svg>
