<svg width="16" height="17" viewBox="0 0 16 17" fill="none" xmlns="http://www.w3.org/2000/svg">
<g clip-path="url(#clip0_123_9601)">
<path d="M8.00016 1.42365C5.42016 1.42365 3.3335 3.51031 3.3335 6.09031C3.3335 9.59031 8.00016 14.757 8.00016 14.757C8.00016 14.757 12.6668 9.59031 12.6668 6.09031C12.6668 3.51031 10.5802 1.42365 8.00016 1.42365ZM4.66683 6.09031C4.66683 4.25031 6.16016 2.75698 8.00016 2.75698C9.84016 2.75698 11.3335 4.25031 11.3335 6.09031C11.3335 8.01031 9.4135 10.8836 8.00016 12.677C6.6135 10.897 4.66683 7.99031 4.66683 6.09031Z" fill="#6F747A"/>
<path d="M8.00016 7.75698C8.92064 7.75698 9.66683 7.01079 9.66683 6.09031C9.66683 5.16984 8.92064 4.42365 8.00016 4.42365C7.07969 4.42365 6.3335 5.16984 6.3335 6.09031C6.3335 7.01079 7.07969 7.75698 8.00016 7.75698Z" fill="#6F747A"/>
</g>
<defs>
<clipPath id="clip0_123_9601">
<rect width="16" height="16" fill="white" transform="translate(0 0.090332)"/>
</clipPath>
</defs>
</svg>
