<svg width="17" height="17" viewBox="0 0 17 17" fill="none" xmlns="http://www.w3.org/2000/svg">
<g clip-path="url(#clip0_123_9976)">
<path d="M9.83301 4.09031V2.75698H7.16634V4.09031H9.83301ZM3.16634 6.09031V12.0903C3.16634 12.457 3.46634 12.757 3.83301 12.757H13.1663C13.533 12.757 13.833 12.457 13.833 12.0903V6.09031C13.833 5.72365 13.533 5.42365 13.1663 5.42365H3.83301C3.46634 5.42365 3.16634 5.72365 3.16634 6.09031ZM13.833 4.09031C14.573 4.09031 15.1663 4.68365 15.1663 5.42365V12.757C15.1663 13.497 14.573 14.0903 13.833 14.0903H3.16634C2.42634 14.0903 1.83301 13.497 1.83301 12.757L1.83967 5.42365C1.83967 4.68365 2.42634 4.09031 3.16634 4.09031H5.83301V2.75698C5.83301 2.01698 6.42634 1.42365 7.16634 1.42365H9.83301C10.573 1.42365 11.1663 2.01698 11.1663 2.75698V4.09031H13.833Z" fill="#6F747A"/>
</g>
<defs>
<clipPath id="clip0_123_9976">
<rect width="16" height="16" fill="white" transform="translate(0.5 0.090332)"/>
</clipPath>
</defs>
</svg>
