<svg width="17" height="17" viewBox="0 0 17 17" fill="none" xmlns="http://www.w3.org/2000/svg">
<g clip-path="url(#clip0_123_9979)">
<path d="M6.49967 8.09031C7.78634 8.09031 8.83301 7.04365 8.83301 5.75698C8.83301 4.47031 7.78634 3.42365 6.49967 3.42365C5.21301 3.42365 4.16634 4.47031 4.16634 5.75698C4.16634 7.04365 5.21301 8.09031 6.49967 8.09031ZM6.49967 4.75698C7.05301 4.75698 7.49967 5.20365 7.49967 5.75698C7.49967 6.31031 7.05301 6.75698 6.49967 6.75698C5.94634 6.75698 5.49967 6.31031 5.49967 5.75698C5.49967 5.20365 5.94634 4.75698 6.49967 4.75698ZM6.49967 9.25698C4.93967 9.25698 1.83301 10.037 1.83301 11.5903V12.0903C1.83301 12.457 2.13301 12.757 2.49967 12.757H10.4997C10.8663 12.757 11.1663 12.457 11.1663 12.0903V11.5903C11.1663 10.037 8.05967 9.25698 6.49967 9.25698ZM3.39301 11.4236C3.95301 11.037 5.30634 10.5903 6.49967 10.5903C7.69301 10.5903 9.04634 11.037 9.60634 11.4236H3.39301ZM11.193 9.29698C11.9663 9.85698 12.4997 10.6036 12.4997 11.5903V12.757H14.4997C14.8663 12.757 15.1663 12.457 15.1663 12.0903V11.5903C15.1663 10.2436 12.833 9.47698 11.193 9.29698ZM10.4997 8.09031C11.7863 8.09031 12.833 7.04365 12.833 5.75698C12.833 4.47031 11.7863 3.42365 10.4997 3.42365C10.1397 3.42365 9.80634 3.51031 9.49967 3.65698C9.91967 4.25031 10.1663 4.97698 10.1663 5.75698C10.1663 6.53698 9.91967 7.26364 9.49967 7.85698C9.80634 8.00364 10.1397 8.09031 10.4997 8.09031Z" fill="#6F747A"/>
</g>
<defs>
<clipPath id="clip0_123_9979">
<rect width="16" height="16" fill="white" transform="translate(0.5 0.090332)"/>
</clipPath>
</defs>
</svg>
