<svg width="17" height="17" viewBox="0 0 17 17" fill="none" xmlns="http://www.w3.org/2000/svg">
<g clip-path="url(#clip0_123_9973)">
<path d="M8.49967 1.42365C5.91967 1.42365 3.83301 3.51031 3.83301 6.09031C3.83301 9.59031 8.49967 14.757 8.49967 14.757C8.49967 14.757 13.1663 9.59031 13.1663 6.09031C13.1663 3.51031 11.0797 1.42365 8.49967 1.42365ZM5.16634 6.09031C5.16634 4.25031 6.65967 2.75698 8.49967 2.75698C10.3397 2.75698 11.833 4.25031 11.833 6.09031C11.833 8.01031 9.91301 10.8836 8.49967 12.677C7.11301 10.897 5.16634 7.99031 5.16634 6.09031Z" fill="#6F747A"/>
<path d="M8.49967 7.75698C9.42015 7.75698 10.1663 7.01079 10.1663 6.09031C10.1663 5.16984 9.42015 4.42365 8.49967 4.42365C7.5792 4.42365 6.83301 5.16984 6.83301 6.09031C6.83301 7.01079 7.5792 7.75698 8.49967 7.75698Z" fill="#6F747A"/>
</g>
<defs>
<clipPath id="clip0_123_9973">
<rect width="16" height="16" fill="white" transform="translate(0.5 0.090332)"/>
</clipPath>
</defs>
</svg>
