<svg width="17" height="17" viewBox="0 0 17 17" fill="none" xmlns="http://www.w3.org/2000/svg">
<g clip-path="url(#clip0_123_9970)">
<path opacity="0.3" d="M8.5 7.42367H9.83333V8.757H8.5V10.0903H9.83333V11.4237H8.5V12.757H13.8333V6.09033H8.5V7.42367ZM11.1667 7.42367H12.5V8.757H11.1667V7.42367ZM11.1667 10.0903H12.5V11.4237H11.1667V10.0903Z" fill="#6F747A"/>
<path d="M8.49967 4.757V2.09033H1.83301V14.0903H15.1663V4.757H8.49967ZM4.49967 12.757H3.16634V11.4237H4.49967V12.757ZM4.49967 10.0903H3.16634V8.757H4.49967V10.0903ZM4.49967 7.42367H3.16634V6.09033H4.49967V7.42367ZM4.49967 4.757H3.16634V3.42367H4.49967V4.757ZM7.16634 12.757H5.83301V11.4237H7.16634V12.757ZM7.16634 10.0903H5.83301V8.757H7.16634V10.0903ZM7.16634 7.42367H5.83301V6.09033H7.16634V7.42367ZM7.16634 4.757H5.83301V3.42367H7.16634V4.757ZM13.833 12.757H8.49967V11.4237H9.83301V10.0903H8.49967V8.757H9.83301V7.42367H8.49967V6.09033H13.833V12.757ZM11.1663 7.42367H12.4997V8.757H11.1663V7.42367ZM11.1663 10.0903H12.4997V11.4237H11.1663V10.0903Z" fill="#6F747A"/>
</g>
<defs>
<clipPath id="clip0_123_9970">
<rect width="16" height="16" fill="white" transform="translate(0.5 0.090332)"/>
</clipPath>
</defs>
</svg>
