<svg width="16" height="17" viewBox="0 0 16 17" fill="none" xmlns="http://www.w3.org/2000/svg">
<g clip-path="url(#clip0_123_9598)">
<path opacity="0.3" d="M8 7.42367H9.33333V8.757H8V10.0903H9.33333V11.4237H8V12.757H13.3333V6.09033H8V7.42367ZM10.6667 7.42367H12V8.757H10.6667V7.42367ZM10.6667 10.0903H12V11.4237H10.6667V10.0903Z" fill="#6F747A"/>
<path d="M8.00016 4.757V2.09033H1.3335V14.0903H14.6668V4.757H8.00016ZM4.00016 12.757H2.66683V11.4237H4.00016V12.757ZM4.00016 10.0903H2.66683V8.757H4.00016V10.0903ZM4.00016 7.42367H2.66683V6.09033H4.00016V7.42367ZM4.00016 4.757H2.66683V3.42367H4.00016V4.757ZM6.66683 12.757H5.3335V11.4237H6.66683V12.757ZM6.66683 10.0903H5.3335V8.757H6.66683V10.0903ZM6.66683 7.42367H5.3335V6.09033H6.66683V7.42367ZM6.66683 4.757H5.3335V3.42367H6.66683V4.757ZM13.3335 12.757H8.00016V11.4237H9.3335V10.0903H8.00016V8.757H9.3335V7.42367H8.00016V6.09033H13.3335V12.757ZM10.6668 7.42367H12.0002V8.757H10.6668V7.42367ZM10.6668 10.0903H12.0002V11.4237H10.6668V10.0903Z" fill="#6F747A"/>
</g>
<defs>
<clipPath id="clip0_123_9598">
<rect width="16" height="16" fill="white" transform="translate(0 0.090332)"/>
</clipPath>
</defs>
</svg>
