<svg width="20" height="21" viewBox="0 0 20 21" fill="none" xmlns="http://www.w3.org/2000/svg">
<path d="M6.66667 2.63013H5C4.67182 2.63018 4.34688 2.69507 4.04384 2.82106C3.74081 2.94705 3.46565 3.13166 3.23417 3.36429C3.00153 3.59578 2.81692 3.87094 2.69093 4.17397C2.56494 4.47701 2.50005 4.80194 2.5 5.13013V6.79679C2.5 7.48429 2.78083 8.10929 3.23417 8.56263C3.46565 8.79526 3.74081 8.97987 4.04384 9.10586C4.34688 9.23185 4.67182 9.29674 5 9.29679H6.66667C6.99485 9.29674 7.31979 9.23185 7.62282 9.10586C7.92586 8.97987 8.20102 8.79526 8.4325 8.56263C8.66513 8.33114 8.84975 8.05598 8.97574 7.75295C9.10173 7.44991 9.16661 7.12498 9.16667 6.79679V5.13013C9.16661 4.80194 9.10173 4.47701 8.97574 4.17397C8.84975 3.87094 8.66513 3.59578 8.4325 3.36429C8.20102 3.13166 7.92586 2.94705 7.62282 2.82106C7.31979 2.69507 6.99485 2.63018 6.66667 2.63013V2.63013ZM15 2.63013H13.3333C13.0052 2.63018 12.6802 2.69507 12.3772 2.82106C12.0741 2.94705 11.799 3.13166 11.5675 3.36429C11.3349 3.59578 11.1503 3.87094 11.0243 4.17397C10.8983 4.47701 10.8334 4.80194 10.8333 5.13013V6.79679C10.8333 7.48429 11.1142 8.10929 11.5675 8.56263C11.799 8.79526 12.0741 8.97987 12.3772 9.10586C12.6802 9.23185 13.0052 9.29674 13.3333 9.29679H15C15.3282 9.29674 15.6531 9.23185 15.9562 9.10586C16.2592 8.97987 16.5343 8.79526 16.7658 8.56263C16.9985 8.33114 17.1831 8.05598 17.3091 7.75295C17.4351 7.44991 17.4999 7.12498 17.5 6.79679V5.13013C17.4999 4.80194 17.4351 4.47701 17.3091 4.17397C17.1831 3.87094 16.9985 3.59578 16.7658 3.36429C16.5343 3.13166 16.2592 2.94705 15.9562 2.82106C15.6531 2.69507 15.3282 2.63018 15 2.63013ZM6.66667 10.9635H5C4.67182 10.9635 4.34688 11.0284 4.04384 11.1544C3.74081 11.2804 3.46565 11.465 3.23417 11.6976C3.00153 11.9291 2.81692 12.2043 2.69093 12.5073C2.56494 12.8103 2.50005 13.1353 2.5 13.4635V15.1301C2.5 15.8176 2.78083 16.4426 3.23417 16.896C3.46565 17.1286 3.74081 17.3132 4.04384 17.4392C4.34688 17.5652 4.67182 17.6301 5 17.6301H6.66667C6.99485 17.6301 7.31979 17.5652 7.62282 17.4392C7.92586 17.3132 8.20102 17.1286 8.4325 16.896C8.66513 16.6645 8.84975 16.3893 8.97574 16.0863C9.10173 15.7832 9.16661 15.4583 9.16667 15.1301V13.4635C9.16661 13.1353 9.10173 12.8103 8.97574 12.5073C8.84975 12.2043 8.66513 11.9291 8.4325 11.6976C8.20102 11.465 7.92586 11.2804 7.62282 11.1544C7.31979 11.0284 6.99485 10.9635 6.66667 10.9635V10.9635ZM15 10.9635H13.3333C13.0052 10.9635 12.6802 11.0284 12.3772 11.1544C12.0741 11.2804 11.799 11.465 11.5675 11.6976C11.3349 11.9291 11.1503 12.2043 11.0243 12.5073C10.8983 12.8103 10.8334 13.1353 10.8333 13.4635V15.1301C10.8333 15.8176 11.1142 16.4426 11.5675 16.896C11.799 17.1286 12.0741 17.3132 12.3772 17.4392C12.6802 17.5652 13.0052 17.6301 13.3333 17.6301H15C15.3282 17.6301 15.6531 17.5652 15.9562 17.4392C16.2592 17.3132 16.5343 17.1286 16.7658 16.896C16.9985 16.6645 17.1831 16.3893 17.3091 16.0863C17.4351 15.7832 17.4999 15.4583 17.5 15.1301V13.4635C17.4999 13.1353 17.4351 12.8103 17.3091 12.5073C17.1831 12.2043 16.9985 11.9291 16.7658 11.6976C16.5343 11.465 16.2592 11.2804 15.9562 11.1544C15.6531 11.0284 15.3282 10.9635 15 10.9635V10.9635Z" fill="#800080"/>
</svg>
