<svg width="20" height="21" viewBox="0 0 20 21" fill="none" xmlns="http://www.w3.org/2000/svg">
<g clip-path="url(#clip0_123_9594)">
<path d="M11.1293 1.31532C10.5458 0.602656 9.45599 0.602658 8.87257 1.31532L8.04601 2.32486C7.98936 2.39405 7.89486 2.41938 7.8112 2.38778L6.59063 1.92675C5.72901 1.60131 4.78518 2.14622 4.6362 3.05515L4.42518 4.3427C4.41071 4.43095 4.34154 4.50013 4.25328 4.5146L2.96573 4.72562C2.05681 4.8746 1.51189 5.81841 1.83734 6.68005L2.29836 7.90062C2.32996 7.98428 2.30464 8.07878 2.23545 8.13543L1.2259 8.96195C0.513239 9.54545 0.513241 10.6353 1.2259 11.2188L2.23545 12.0453C2.30464 12.1019 2.32996 12.1964 2.29836 12.2801L1.83734 13.5007C1.5119 14.3623 2.0568 15.3061 2.96573 15.4551L4.25328 15.6661C4.34154 15.6806 4.41071 15.7498 4.42518 15.838L4.6362 17.1255C4.78518 18.0344 5.729 18.5794 6.59063 18.2539L7.8112 17.7929C7.89486 17.7614 7.98936 17.7866 8.04601 17.8559L8.87257 18.8654C9.45599 19.578 10.5458 19.578 11.1293 18.8654L11.9558 17.8559C12.0125 17.7866 12.107 17.7614 12.1907 17.7929L13.4112 18.2539C14.2729 18.5794 15.2167 18.0344 15.3657 17.1255L15.5767 15.838C15.5912 15.7498 15.6603 15.6806 15.7486 15.6661L17.0362 15.4551C17.9451 15.3061 18.49 14.3623 18.1646 13.5007L17.7035 12.2801C17.6719 12.1964 17.6972 12.1019 17.7664 12.0453L18.776 11.2188C19.4887 10.6353 19.4887 9.54545 18.776 8.96195L17.7664 8.13543C17.6972 8.07878 17.6719 7.98428 17.7035 7.90062L18.1646 6.68005C18.49 5.81841 17.9451 4.8746 17.0362 4.72562L15.7486 4.5146C15.6603 4.50013 15.5912 4.43095 15.5767 4.3427L15.3657 3.05515C15.2167 2.14623 14.2729 1.6013 13.4112 1.92675L12.1907 2.38778C12.107 2.41938 12.0125 2.39405 11.9558 2.32486L11.1293 1.31532Z" fill="#3D88E0"/>
<path fill-rule="evenodd" clip-rule="evenodd" d="M15.0256 6.73176C15.2697 6.97584 15.2697 7.37157 15.0256 7.61565L9.19224 13.449C9.07507 13.5662 8.91607 13.632 8.75032 13.632C8.58457 13.632 8.42557 13.5662 8.30838 13.449L4.97505 10.1156C4.73097 9.87154 4.73097 9.47587 4.97505 9.23179C5.21912 8.9877 5.61486 8.9877 5.85893 9.23179L8.75032 12.1231L14.1417 6.73176C14.3858 6.48769 14.7815 6.48769 15.0256 6.73176Z" fill="#E6E0D3"/>
</g>
<defs>
<clipPath id="clip0_123_9594">
<rect width="20" height="20" fill="white" transform="translate(0 0.090332)"/>
</clipPath>
</defs>
</svg>
