<svg width="20" height="20" viewBox="0 0 20 20" fill="none" xmlns="http://www.w3.org/2000/svg">
<path fill-rule="evenodd" clip-rule="evenodd" d="M2.5 3.75C2.5 3.05964 3.05964 2.5 3.75 2.5H16.25C16.9404 2.5 17.5 3.05964 17.5 3.75V16.25C17.5 16.9404 16.9404 17.5 16.25 17.5H3.75C3.05964 17.5 2.5 16.9404 2.5 16.25V3.75ZM16.25 3.75H3.75V16.25H16.25V3.75Z" fill="#800080"/>
<path fill-rule="evenodd" clip-rule="evenodd" d="M12.6422 8.48086C12.7951 8.41683 12.9592 8.38387 13.125 8.38387C13.2908 8.38387 13.4549 8.41683 13.6078 8.48086C13.7598 8.5445 13.8977 8.63758 14.0136 8.75471L17.3169 12.0581C17.561 12.3021 17.561 12.6979 17.3169 12.9419C17.0729 13.186 16.6771 13.186 16.4331 12.9419L13.125 9.63388L13.1216 9.63727L9.63865 13.1202C9.52275 13.2374 9.38481 13.3305 9.23277 13.3942C9.07987 13.4582 8.91577 13.4912 8.75 13.4912C8.58423 13.4912 8.42013 13.4582 8.26723 13.3942C8.11518 13.3305 7.97723 13.2374 7.86132 13.1202L6.24999 11.5089L6.24664 11.5123L3.56694 14.1919C3.32286 14.436 2.92714 14.436 2.68306 14.1919C2.43898 13.9479 2.43898 13.5521 2.68306 13.3081L5.36135 10.6298C5.47725 10.5126 5.61519 10.4195 5.76723 10.3559C5.92013 10.2918 6.08423 10.2589 6.25 10.2589C6.41577 10.2589 6.57987 10.2918 6.73277 10.3559C6.88482 10.4195 7.02276 10.5126 7.13867 10.6298L8.75001 12.2411L8.75336 12.2377L12.2364 8.75477C12.3523 8.63761 12.4902 8.54451 12.6422 8.48086Z" fill="#800080"/>
<path d="M7.8125 8.125C8.33027 8.125 8.75 7.70527 8.75 7.1875C8.75 6.66973 8.33027 6.25 7.8125 6.25C7.29473 6.25 6.875 6.66973 6.875 7.1875C6.875 7.70527 7.29473 8.125 7.8125 8.125Z" fill="#800080"/>
</svg>
