<svg width="20" height="20" viewBox="0 0 20 20" fill="none" xmlns="http://www.w3.org/2000/svg">
<path fill-rule="evenodd" clip-rule="evenodd" d="M11.5651 2.77114C12.1595 2.23252 12.9383 1.94312 13.7403 1.96286C14.5422 1.98261 15.3058 2.30998 15.8731 2.87721C16.4403 3.44443 16.7677 4.20806 16.7874 5.01C16.8071 5.81193 16.5177 6.59075 15.9791 7.1852C15.9732 7.19172 15.9672 7.19812 15.961 7.20438L8.20318 15.0716C8.19495 15.0799 8.18649 15.088 8.17781 15.0959C7.82114 15.4191 7.35385 15.5927 6.87269 15.5809C6.39153 15.569 5.93335 15.3726 5.59301 15.0322C5.25268 14.6919 5.05625 14.2337 5.04441 13.7526C5.03256 13.2714 5.2062 12.8041 5.52937 12.4474C5.53509 12.4411 5.54094 12.4349 5.54692 12.4289L12.0547 5.81168C12.2968 5.56557 12.6925 5.56227 12.9386 5.80431C13.1847 6.04634 13.188 6.44206 12.9459 6.68816L6.44864 13.2947C6.34544 13.4125 6.29016 13.5649 6.29403 13.7218C6.29798 13.8822 6.36345 14.0349 6.4769 14.1484C6.59034 14.2618 6.74307 14.3273 6.90345 14.3312C7.05899 14.3351 7.21017 14.2807 7.32759 14.1792L15.061 6.33678C15.3789 5.98128 15.5495 5.51784 15.5378 5.04076C15.5259 4.5596 15.3295 4.10142 14.9892 3.76109C14.6488 3.42075 14.1907 3.22433 13.7095 3.21248C13.2338 3.20077 12.7716 3.37037 12.4165 3.68655L4.66885 11.5434C4.08365 12.1286 3.75488 12.9223 3.75488 13.7499C3.75488 14.5775 4.08364 15.3712 4.66884 15.9564C5.25404 16.5416 6.04774 16.8704 6.87534 16.8704C7.70294 16.8704 8.49664 16.5416 9.08184 15.9564L15.4964 9.55744C15.7408 9.31366 16.1365 9.31414 16.3803 9.55852C16.6241 9.80289 16.6236 10.1986 16.3792 10.4424L9.96572 16.8403C9.1461 17.6599 8.03446 18.1204 6.87534 18.1204C5.71622 18.1204 4.60458 17.6599 3.78496 16.8403C2.96534 16.0207 2.50488 14.909 2.50488 13.7499C2.50488 12.5916 2.96474 11.4806 3.78334 10.6612L11.5397 2.79546C11.5479 2.78711 11.5564 2.77901 11.5651 2.77114Z" fill="#0E1114"/>
</svg>
