<svg width="16" height="16" viewBox="0 0 16 16" fill="none" xmlns="http://www.w3.org/2000/svg">
<path fill-rule="evenodd" clip-rule="evenodd" d="M7.29688 2.84375C4.83748 2.84375 2.84375 4.83748 2.84375 7.29688C2.84375 9.75627 4.83748 11.75 7.29688 11.75C9.75627 11.75 11.75 9.75627 11.75 7.29688C11.75 4.83748 9.75627 2.84375 7.29688 2.84375ZM1.90625 7.29688C1.90625 4.31972 4.31972 1.90625 7.29688 1.90625C10.274 1.90625 12.6875 4.31972 12.6875 7.29688C12.6875 10.274 10.274 12.6875 7.29688 12.6875C4.31972 12.6875 1.90625 10.274 1.90625 7.29688Z" fill="white"/>
<path fill-rule="evenodd" clip-rule="evenodd" d="M10.4459 10.4459C10.6289 10.2628 10.9257 10.2628 11.1088 10.4459L13.9565 13.2935C14.1395 13.4766 14.1395 13.7734 13.9565 13.9565C13.7734 14.1395 13.4766 14.1395 13.2935 13.9565L10.4459 11.1088C10.2628 10.9257 10.2628 10.6289 10.4459 10.4459Z" fill="white"/>
</svg>
