<svg width="42" height="56" viewBox="0 0 42 56" fill="none" xmlns="http://www.w3.org/2000/svg">
<g filter="url(#filter0_f_123_10114)">
<ellipse cx="12.5" cy="29.2163" rx="4" ry="2" fill="black" fill-opacity="0.12"/>
</g>
<mask id="path-2-outside-1_123_10114" maskUnits="userSpaceOnUse" x="2.91699" y="2.65381" width="37" height="47" fill="black">
<rect fill="white" x="2.91699" y="2.65381" width="37" height="47"/>
<path fill-rule="evenodd" clip-rule="evenodd" d="M31.1069 34.6998C35.3377 31.5714 38.0837 26.529 38.0837 20.8413C38.0837 11.3489 30.4352 3.65381 21.0003 3.65381C11.5655 3.65381 3.91699 11.3489 3.91699 20.8413C3.91699 26.529 6.66298 31.5715 10.8939 34.6999C14.1102 37.1382 18.6444 40.9853 19.684 47.1786C19.7933 47.8303 20.3395 48.3361 21.0003 48.3361C21.6611 48.3361 22.2073 47.8303 22.3167 47.1786C23.3563 40.9852 27.8905 37.1381 31.1069 34.6998Z"/>
</mask>
<path fill-rule="evenodd" clip-rule="evenodd" d="M31.1069 34.6998C35.3377 31.5714 38.0837 26.529 38.0837 20.8413C38.0837 11.3489 30.4352 3.65381 21.0003 3.65381C11.5655 3.65381 3.91699 11.3489 3.91699 20.8413C3.91699 26.529 6.66298 31.5715 10.8939 34.6999C14.1102 37.1382 18.6444 40.9853 19.684 47.1786C19.7933 47.8303 20.3395 48.3361 21.0003 48.3361C21.6611 48.3361 22.2073 47.8303 22.3167 47.1786C23.3563 40.9852 27.8905 37.1381 31.1069 34.6998Z" fill="#EA352B"/>
<path d="M31.1069 34.6998L30.5123 33.8957L30.5027 33.9029L31.1069 34.6998ZM10.8939 34.6999L11.4981 33.903L11.4884 33.8958L10.8939 34.6999ZM19.684 47.1786L20.6702 47.013L19.684 47.1786ZM22.3167 47.1786L21.3305 47.013V47.0131L22.3167 47.1786ZM31.7014 35.5039C36.1775 32.1941 39.0837 26.8581 39.0837 20.8413H37.0837C37.0837 26.1999 34.4979 30.9487 30.5123 33.8958L31.7014 35.5039ZM39.0837 20.8413C39.0837 10.8024 30.9932 2.65381 21.0003 2.65381V4.65381C29.8772 4.65381 37.0837 11.8955 37.0837 20.8413H39.0837ZM21.0003 2.65381C11.0075 2.65381 2.91699 10.8024 2.91699 20.8413H4.91699C4.91699 11.8955 12.1235 4.65381 21.0003 4.65381V2.65381ZM2.91699 20.8413C2.91699 26.8581 5.82319 32.1942 10.2994 35.504L11.4884 33.8958C7.50279 30.9488 4.91699 26.1999 4.91699 20.8413H2.91699ZM20.6702 47.013C19.5611 40.4055 14.7294 36.3527 11.498 33.903L10.2898 35.4968C13.491 37.9237 17.7277 41.5651 18.6978 47.3441L20.6702 47.013ZM21.0003 47.3361C20.8738 47.3361 20.7065 47.2298 20.6702 47.013L18.6978 47.3441C18.8802 48.4308 19.8052 49.3361 21.0003 49.3361V47.3361ZM21.3305 47.0131C21.2941 47.2298 21.1268 47.3361 21.0003 47.3361V49.3361C22.1954 49.3361 23.1205 48.4308 23.3029 47.3441L21.3305 47.0131ZM30.5027 33.9029C27.2714 36.3526 22.4396 40.4054 21.3305 47.013L23.3029 47.3441C24.2729 41.565 28.5097 37.9236 31.711 35.4967L30.5027 33.9029Z" fill="url(#paint0_linear_123_10114)" mask="url(#path-2-outside-1_123_10114)"/>
<ellipse cx="21.0003" cy="20.8413" rx="6.83333" ry="6.875" fill="black" fill-opacity="0.4"/>
<defs>
<filter id="filter0_f_123_10114" x="6.5" y="25.2163" width="12" height="8" filterUnits="userSpaceOnUse" color-interpolation-filters="sRGB">
<feFlood flood-opacity="0" result="BackgroundImageFix"/>
<feBlend mode="normal" in="SourceGraphic" in2="BackgroundImageFix" result="shape"/>
<feGaussianBlur stdDeviation="1" result="effect1_foregroundBlur_123_10114"/>
</filter>
<linearGradient id="paint0_linear_123_10114" x1="21.0003" y1="3.65381" x2="21.0003" y2="48.3361" gradientUnits="userSpaceOnUse">
<stop stop-color="white"/>
<stop offset="1" stop-color="white" stop-opacity="0.35"/>
</linearGradient>
</defs>
</svg>
