<svg width="20" height="20" viewBox="0 0 20 20" fill="none" xmlns="http://www.w3.org/2000/svg">
<path fill-rule="evenodd" clip-rule="evenodd" d="M4.16667 11.6666C3.24619 11.6666 2.5 10.9205 2.5 9.99998C2.5 9.07951 3.24619 8.33331 4.16667 8.33331C5.08714 8.33331 5.83333 9.07951 5.83333 9.99998C5.83333 10.9205 5.08714 11.6666 4.16667 11.6666ZM10 11.6666C9.07953 11.6666 8.33333 10.9205 8.33333 9.99998C8.33333 9.07951 9.07953 8.33331 10 8.33331C10.9205 8.33331 11.6667 9.07951 11.6667 9.99998C11.6667 10.9205 10.9205 11.6666 10 11.6666ZM15.8333 11.6666C14.9129 11.6666 14.1667 10.9205 14.1667 9.99998C14.1667 9.07951 14.9129 8.33331 15.8333 8.33331C16.7538 8.33331 17.5 9.07951 17.5 9.99998C17.5 10.9205 16.7538 11.6666 15.8333 11.6666Z" stroke="#939598"/>
</svg>
