<svg width="21" height="21" viewBox="0 0 21 21" fill="none" xmlns="http://www.w3.org/2000/svg">
<g clip-path="url(#clip0_123_9984)">
<path d="M10.5 1.2251C5.15821 1.2251 0.8125 5.5708 0.8125 10.9126C0.8125 16.2544 5.15821 20.6001 10.5 20.6001C15.8418 20.6001 20.1875 16.2544 20.1875 10.9126C20.1875 5.5708 15.8418 1.2251 10.5 1.2251ZM14.658 12.8668C14.7116 12.2222 14.741 11.5674 14.741 10.9126C14.741 10.2578 14.7116 9.60301 14.658 8.9584C17.044 9.47789 18.3125 10.3689 18.3125 10.9126C18.3125 11.4563 17.044 12.3473 14.658 12.8668ZM10.5 18.7251C9.95629 18.7251 9.06529 17.4566 8.54581 15.0706C9.19041 15.1242 9.84517 15.1536 10.5 15.1536C11.1548 15.1536 11.8096 15.1242 12.4542 15.0706C11.9347 17.4566 11.0437 18.7251 10.5 18.7251ZM10.5 13.2786C9.68736 13.2786 8.94093 13.2348 8.24895 13.1636C8.1778 12.4717 8.13398 11.7252 8.13398 10.9126C8.13398 10.1 8.17781 9.35353 8.24895 8.66155C8.94094 8.5904 9.68736 8.54657 10.5 8.54657C11.3126 8.54657 12.0591 8.5904 12.7511 8.66155C12.8222 9.35354 12.866 10.1 12.866 10.9126C12.866 11.7252 12.8222 12.4717 12.7511 13.1636C12.0591 13.2348 11.3126 13.2786 10.5 13.2786ZM2.6875 10.9126C2.6875 10.3689 3.95596 9.47789 6.34198 8.9584C6.28838 9.60301 6.25898 10.2578 6.25898 10.9126C6.25898 11.5674 6.28839 12.2222 6.34198 12.8668C3.95596 12.3473 2.6875 11.4563 2.6875 10.9126ZM10.5 3.1001C11.0437 3.1001 11.9347 4.36856 12.4542 6.75458C11.8096 6.70098 11.1548 6.67157 10.5 6.67157C9.84517 6.67157 9.19041 6.70099 8.54581 6.75458C9.06529 4.36856 9.95629 3.1001 10.5 3.1001ZM17.7462 8.00714C16.8078 7.56352 15.6568 7.23138 14.4045 7.00807C14.1812 5.75582 13.8491 4.60481 13.4055 3.66635C15.3782 4.4603 16.9523 6.03436 17.7462 8.00714ZM7.59454 3.66639C7.15093 4.60485 6.81878 5.75585 6.59547 7.00807C5.34326 7.23138 4.19225 7.56345 3.25379 8.0071C4.04774 6.03432 5.62181 4.46034 7.59454 3.66639ZM3.25383 13.8181C4.19229 14.2617 5.34326 14.5938 6.59547 14.8171C6.81878 16.0693 7.15085 17.2203 7.5945 18.1588C5.62181 17.3648 4.04778 15.7908 3.25383 13.8181ZM13.4055 18.1588C13.8491 17.2203 14.1812 16.0693 14.4045 14.8171C15.6567 14.5938 16.8077 14.2617 17.7462 13.8181C16.9523 15.7908 15.3783 17.3649 13.4055 18.1588Z" fill="white"/>
</g>
<defs>
<clipPath id="clip0_123_9984">
<rect width="20" height="20" fill="white" transform="translate(0.5 0.912598)"/>
</clipPath>
</defs>
</svg>
