<svg width="141" height="38" viewBox="0 0 141 38" fill="none" xmlns="http://www.w3.org/2000/svg">
<rect opacity="0.25" x="103.797" y="0.75" width="36.3647" height="36.3646" rx="18.1823" stroke="#E6E0D3" stroke-width="1.5"/>
<path fill-rule="evenodd" clip-rule="evenodd" d="M121.796 16.4334L121.824 16.8953L121.368 16.8387C119.708 16.6219 118.258 15.8866 117.027 14.6516L116.425 14.0388L116.27 14.4913C115.942 15.5001 116.151 16.5653 116.835 17.2818C117.2 17.6778 117.118 17.7343 116.489 17.4986C116.27 17.4232 116.078 17.3667 116.06 17.3949C115.996 17.4609 116.215 18.3188 116.388 18.6582C116.626 19.1295 117.109 19.5915 117.638 19.8649L118.085 20.0817L117.556 20.0911C117.045 20.0911 117.027 20.1006 117.082 20.2985C117.264 20.9113 117.984 21.5618 118.787 21.8446L119.352 22.0426L118.86 22.3442C118.13 22.7779 117.273 23.023 116.416 23.0419C116.005 23.0513 115.668 23.089 115.668 23.1173C115.668 23.2115 116.781 23.7395 117.428 23.9469C119.371 24.5596 121.678 24.2957 123.411 23.2493C124.642 22.5045 125.873 21.0244 126.448 19.5915C126.758 18.8279 127.068 17.4326 127.068 16.7633C127.068 16.3297 127.095 16.2731 127.606 15.7546C127.907 15.4529 128.189 15.123 128.244 15.0287C128.335 14.8496 128.326 14.8496 127.861 15.0098C127.086 15.2927 126.977 15.255 127.36 14.8307C127.642 14.5291 127.98 13.9823 127.98 13.822C127.98 13.7937 127.843 13.8409 127.688 13.9257C127.524 14.02 127.159 14.1614 126.885 14.2462L126.393 14.4065L125.946 14.0954C125.7 13.9257 125.353 13.7372 125.171 13.6806C124.706 13.5486 123.994 13.5675 123.575 13.7183C122.435 14.1425 121.714 15.2361 121.796 16.4334Z" fill="#E6E0D3"/>
<rect opacity="0.25" x="52.3398" y="0.75" width="36.3646" height="36.3646" rx="18.1823" stroke="#E6E0D3" stroke-width="1.5"/>
<path fill-rule="evenodd" clip-rule="evenodd" d="M67.1236 25.2431H64.2109V16.5051H67.1236V25.2431V25.2431Z" fill="#E6E0D3"/>
<path fill-rule="evenodd" clip-rule="evenodd" d="M65.6586 14.5634H65.6421C64.7729 14.5634 64.2109 13.9158 64.2109 13.1065C64.2109 12.2801 64.79 11.6506 65.6757 11.6506C66.5614 11.6506 67.1068 12.2801 67.1236 13.1065C67.1236 13.9158 66.5614 14.5634 65.6586 14.5634V14.5634Z" fill="#E6E0D3"/>
<path fill-rule="evenodd" clip-rule="evenodd" d="M77.8033 25.2429H74.9412V20.6754C74.9412 19.5282 74.527 18.7453 73.4909 18.7453C72.7001 18.7453 72.2291 19.2731 72.0223 19.7828C71.9466 19.9655 71.928 20.22 71.928 20.4752V25.2431H69.0654C69.0654 25.2431 69.1032 17.5069 69.0654 16.7058H71.928V17.9151C72.3079 17.3338 72.9883 16.5051 74.5079 16.5051C76.3914 16.5051 77.8034 17.7256 77.8034 20.3479L77.8033 25.2429V25.2429Z" fill="#E6E0D3"/>
<rect opacity="0.25" x="0.882812" y="0.75" width="36.3646" height="36.3646" rx="18.1823" stroke="#E6E0D3" stroke-width="1.5"/>
<path fill-rule="evenodd" clip-rule="evenodd" d="M17.1726 26.2141V18.9318H15.667V16.4222H17.1726V14.9154C17.1726 12.8681 18.0227 11.6506 20.4381 11.6506H22.4489V14.1605H21.192C20.2518 14.1605 20.1896 14.5112 20.1896 15.1658L20.1862 16.4219H22.4632L22.1967 18.9315H20.1862V26.2141H17.1726Z" fill="#E6E0D3"/>
</svg>
