<svg width="21" height="21" viewBox="0 0 21 21" fill="none" xmlns="http://www.w3.org/2000/svg">
<path d="M14.9503 5.46262C14.7525 5.46262 14.5592 5.52127 14.3948 5.63115C14.2303 5.74103 14.1021 5.89721 14.0264 6.07993C13.9508 6.26266 13.931 6.46373 13.9695 6.65771C14.0081 6.85169 14.1034 7.02987 14.2432 7.16973C14.3831 7.30958 14.5613 7.40482 14.7552 7.4434C14.9492 7.48199 15.1503 7.46219 15.333 7.3865C15.5157 7.31081 15.6719 7.18264 15.7818 7.01819C15.8917 6.85374 15.9503 6.6604 15.9503 6.46262C15.9503 6.1974 15.845 5.94305 15.6574 5.75551C15.4699 5.56798 15.2155 5.46262 14.9503 5.46262V5.46262ZM18.7837 7.47928C18.7675 6.78787 18.638 6.10379 18.4003 5.45428C18.1884 4.89856 17.8586 4.39535 17.4337 3.97928C17.021 3.55214 16.5166 3.22443 15.9587 3.02095C15.3109 2.77609 14.626 2.64363 13.9337 2.62928C13.0503 2.57928 12.767 2.57928 10.5003 2.57928C8.23366 2.57928 7.95033 2.57928 7.06699 2.62928C6.37462 2.64363 5.68978 2.77609 5.04199 3.02095C4.48506 3.22649 3.9811 3.55392 3.56699 3.97928C3.13985 4.39193 2.81214 4.89632 2.60866 5.45428C2.36379 6.10207 2.23133 6.78691 2.21699 7.47928C2.16699 8.36262 2.16699 8.64595 2.16699 10.9126C2.16699 13.1793 2.16699 13.4626 2.21699 14.346C2.23133 15.0383 2.36379 15.7232 2.60866 16.371C2.81214 16.9289 3.13985 17.4333 3.56699 17.846C3.9811 18.2713 4.48506 18.5987 5.04199 18.8043C5.68978 19.0492 6.37462 19.1816 7.06699 19.196C7.95033 19.246 8.23366 19.246 10.5003 19.246C12.767 19.246 13.0503 19.246 13.9337 19.196C14.626 19.1816 15.3109 19.0492 15.9587 18.8043C16.5166 18.6008 17.021 18.2731 17.4337 17.846C17.8605 17.4314 18.1906 16.9278 18.4003 16.371C18.638 15.7214 18.7675 15.0374 18.7837 14.346C18.7837 13.4626 18.8337 13.1793 18.8337 10.9126C18.8337 8.64595 18.8337 8.36262 18.7837 7.47928V7.47928ZM17.2837 14.246C17.2776 14.7749 17.1818 15.299 17.0003 15.796C16.8673 16.1586 16.6536 16.4863 16.3753 16.7543C16.105 17.0297 15.778 17.243 15.417 17.3793C14.9201 17.5607 14.396 17.6566 13.867 17.6626C13.0337 17.7043 12.7253 17.7126 10.5337 17.7126C8.34199 17.7126 8.03366 17.7126 7.20033 17.6626C6.65107 17.6729 6.10415 17.5883 5.58366 17.4126C5.23848 17.2693 4.92646 17.0566 4.66699 16.7876C4.3904 16.5199 4.17936 16.1919 4.05033 15.8293C3.84687 15.3252 3.73403 14.7892 3.71699 14.246C3.71699 13.4126 3.66699 13.1043 3.66699 10.9126C3.66699 8.72095 3.66699 8.41262 3.71699 7.57928C3.72073 7.0385 3.81945 6.50257 4.00866 5.99595C4.15536 5.64421 4.38055 5.33067 4.66699 5.07928C4.92017 4.79276 5.23307 4.5652 5.58366 4.41262C6.09162 4.22932 6.62699 4.13352 7.16699 4.12928C8.00033 4.12928 8.30866 4.07928 10.5003 4.07928C12.692 4.07928 13.0003 4.07928 13.8337 4.12928C14.3626 4.13535 14.8867 4.23116 15.3837 4.41262C15.7624 4.55316 16.1022 4.78166 16.3753 5.07928C16.6484 5.33527 16.8618 5.64823 17.0003 5.99595C17.1855 6.5034 17.2814 7.0391 17.2837 7.57928C17.3253 8.41262 17.3337 8.72095 17.3337 10.9126C17.3337 13.1043 17.3253 13.4126 17.2837 14.246ZM10.5003 6.63762C9.65517 6.63927 8.82946 6.89139 8.12754 7.36213C7.42561 7.83288 6.87897 8.50112 6.55669 9.28241C6.2344 10.0637 6.15093 10.923 6.31682 11.7517C6.48271 12.5804 6.89052 13.3414 7.48872 13.9384C8.08692 14.5355 8.84867 14.9418 9.67771 15.1061C10.5067 15.2704 11.3659 15.1852 12.1465 14.8614C12.9272 14.5376 13.5944 13.9897 14.0638 13.2868C14.5331 12.584 14.7837 11.7578 14.7837 10.9126C14.7848 10.3502 14.6747 9.79312 14.4597 9.27342C14.2447 8.75371 13.9291 8.28163 13.5311 7.88433C13.133 7.48703 12.6603 7.17235 12.1402 6.95839C11.62 6.74443 11.0627 6.63542 10.5003 6.63762V6.63762ZM10.5003 13.6876C9.95148 13.6876 9.41496 13.5249 8.95862 13.2199C8.50227 12.915 8.14659 12.4816 7.93656 11.9746C7.72653 11.4675 7.67157 10.9095 7.77865 10.3712C7.88572 9.83295 8.15001 9.33849 8.5381 8.9504C8.9262 8.56231 9.42065 8.29801 9.95895 8.19094C10.4972 8.08387 11.0552 8.13882 11.5623 8.34885C12.0693 8.55889 12.5027 8.91456 12.8077 9.37091C13.1126 9.82726 13.2753 10.3638 13.2753 10.9126C13.2753 11.277 13.2035 11.6379 13.0641 11.9746C12.9246 12.3112 12.7202 12.6172 12.4625 12.8748C12.2049 13.1325 11.899 13.3369 11.5623 13.4764C11.2256 13.6158 10.8647 13.6876 10.5003 13.6876V13.6876Z" fill="white"/>
</svg>
