<svg width="20" height="21" viewBox="0 0 20 21" fill="none" xmlns="http://www.w3.org/2000/svg">
<path d="M14.4503 5.46262C14.2525 5.46262 14.0592 5.52127 13.8948 5.63115C13.7303 5.74103 13.6021 5.89721 13.5264 6.07993C13.4508 6.26266 13.431 6.46373 13.4695 6.65771C13.5081 6.85169 13.6034 7.02987 13.7432 7.16973C13.8831 7.30958 14.0613 7.40482 14.2552 7.4434C14.4492 7.48199 14.6503 7.46219 14.833 7.3865C15.0157 7.31081 15.1719 7.18264 15.2818 7.01819C15.3917 6.85374 15.4503 6.6604 15.4503 6.46262C15.4503 6.1974 15.345 5.94305 15.1574 5.75551C14.9699 5.56798 14.7155 5.46262 14.4503 5.46262V5.46262ZM18.2837 7.47928C18.2675 6.78787 18.138 6.10379 17.9003 5.45428C17.6884 4.89856 17.3586 4.39535 16.9337 3.97928C16.521 3.55214 16.0166 3.22443 15.4587 3.02095C14.8109 2.77609 14.126 2.64363 13.4337 2.62928C12.5503 2.57928 12.267 2.57928 10.0003 2.57928C7.73366 2.57928 7.45033 2.57928 6.56699 2.62928C5.87462 2.64363 5.18978 2.77609 4.54199 3.02095C3.98506 3.22649 3.4811 3.55392 3.06699 3.97928C2.63985 4.39193 2.31214 4.89632 2.10866 5.45428C1.86379 6.10207 1.73133 6.78691 1.71699 7.47928C1.66699 8.36262 1.66699 8.64595 1.66699 10.9126C1.66699 13.1793 1.66699 13.4626 1.71699 14.346C1.73133 15.0383 1.86379 15.7232 2.10866 16.371C2.31214 16.9289 2.63985 17.4333 3.06699 17.846C3.4811 18.2713 3.98506 18.5987 4.54199 18.8043C5.18978 19.0492 5.87462 19.1816 6.56699 19.196C7.45033 19.246 7.73366 19.246 10.0003 19.246C12.267 19.246 12.5503 19.246 13.4337 19.196C14.126 19.1816 14.8109 19.0492 15.4587 18.8043C16.0166 18.6008 16.521 18.2731 16.9337 17.846C17.3605 17.4314 17.6906 16.9278 17.9003 16.371C18.138 15.7214 18.2675 15.0374 18.2837 14.346C18.2837 13.4626 18.3337 13.1793 18.3337 10.9126C18.3337 8.64595 18.3337 8.36262 18.2837 7.47928V7.47928ZM16.7837 14.246C16.7776 14.7749 16.6818 15.299 16.5003 15.796C16.3673 16.1586 16.1536 16.4863 15.8753 16.7543C15.605 17.0297 15.278 17.243 14.917 17.3793C14.4201 17.5607 13.896 17.6566 13.367 17.6626C12.5337 17.7043 12.2253 17.7126 10.0337 17.7126C7.84199 17.7126 7.53366 17.7126 6.70033 17.6626C6.15107 17.6729 5.60415 17.5883 5.08366 17.4126C4.73848 17.2693 4.42646 17.0566 4.16699 16.7876C3.8904 16.5199 3.67936 16.1919 3.55033 15.8293C3.34687 15.3252 3.23403 14.7892 3.21699 14.246C3.21699 13.4126 3.16699 13.1043 3.16699 10.9126C3.16699 8.72095 3.16699 8.41262 3.21699 7.57928C3.22073 7.0385 3.31945 6.50257 3.50866 5.99595C3.65536 5.64421 3.88055 5.33067 4.16699 5.07928C4.42017 4.79276 4.73307 4.5652 5.08366 4.41262C5.59162 4.22932 6.12699 4.13352 6.66699 4.12928C7.50033 4.12928 7.80866 4.07928 10.0003 4.07928C12.192 4.07928 12.5003 4.07928 13.3337 4.12928C13.8626 4.13535 14.3867 4.23116 14.8837 4.41262C15.2624 4.55316 15.6022 4.78166 15.8753 5.07928C16.1484 5.33527 16.3618 5.64823 16.5003 5.99595C16.6855 6.5034 16.7814 7.0391 16.7837 7.57928C16.8253 8.41262 16.8337 8.72095 16.8337 10.9126C16.8337 13.1043 16.8253 13.4126 16.7837 14.246ZM10.0003 6.63762C9.15517 6.63927 8.32946 6.89139 7.62754 7.36213C6.92561 7.83288 6.37897 8.50112 6.05669 9.28241C5.7344 10.0637 5.65093 10.923 5.81682 11.7517C5.98271 12.5804 6.39052 13.3414 6.98872 13.9384C7.58692 14.5355 8.34867 14.9418 9.17771 15.1061C10.0067 15.2704 10.8659 15.1852 11.6465 14.8614C12.4272 14.5376 13.0944 13.9897 13.5638 13.2868C14.0331 12.584 14.2837 11.7578 14.2837 10.9126C14.2848 10.3502 14.1747 9.79312 13.9597 9.27342C13.7447 8.75371 13.4291 8.28163 13.0311 7.88433C12.633 7.48703 12.1603 7.17235 11.6402 6.95839C11.12 6.74443 10.5627 6.63542 10.0003 6.63762V6.63762ZM10.0003 13.6876C9.45148 13.6876 8.91496 13.5249 8.45862 13.2199C8.00227 12.915 7.64659 12.4816 7.43656 11.9746C7.22653 11.4675 7.17157 10.9095 7.27865 10.3712C7.38572 9.83295 7.65001 9.33849 8.0381 8.9504C8.4262 8.56231 8.92065 8.29801 9.45895 8.19094C9.99725 8.08387 10.5552 8.13882 11.0623 8.34885C11.5693 8.55889 12.0027 8.91456 12.3077 9.37091C12.6126 9.82726 12.7753 10.3638 12.7753 10.9126C12.7753 11.277 12.7035 11.6379 12.5641 11.9746C12.4246 12.3112 12.2202 12.6172 11.9625 12.8748C11.7049 13.1325 11.399 13.3369 11.0623 13.4764C10.7256 13.6158 10.3647 13.6876 10.0003 13.6876V13.6876Z" fill="white"/>
</svg>
