<svg width="20" height="21" viewBox="0 0 20 21" fill="none" xmlns="http://www.w3.org/2000/svg">
<g clip-path="url(#clip0_123_9612)">
<path d="M10 1.2251C4.65821 1.2251 0.3125 5.5708 0.3125 10.9126C0.3125 16.2544 4.65821 20.6001 10 20.6001C15.3418 20.6001 19.6875 16.2544 19.6875 10.9126C19.6875 5.5708 15.3418 1.2251 10 1.2251ZM14.158 12.8668C14.2116 12.2222 14.241 11.5674 14.241 10.9126C14.241 10.2578 14.2116 9.60301 14.158 8.9584C16.544 9.47789 17.8125 10.3689 17.8125 10.9126C17.8125 11.4563 16.544 12.3473 14.158 12.8668ZM10 18.7251C9.45629 18.7251 8.56529 17.4566 8.04581 15.0706C8.69041 15.1242 9.34517 15.1536 10 15.1536C10.6548 15.1536 11.3096 15.1242 11.9542 15.0706C11.4347 17.4566 10.5437 18.7251 10 18.7251ZM10 13.2786C9.18736 13.2786 8.44093 13.2348 7.74895 13.1636C7.6778 12.4717 7.63398 11.7252 7.63398 10.9126C7.63398 10.1 7.67781 9.35353 7.74895 8.66155C8.44094 8.5904 9.18736 8.54657 10 8.54657C10.8126 8.54657 11.5591 8.5904 12.2511 8.66155C12.3222 9.35354 12.366 10.1 12.366 10.9126C12.366 11.7252 12.3222 12.4717 12.2511 13.1636C11.5591 13.2348 10.8126 13.2786 10 13.2786ZM2.1875 10.9126C2.1875 10.3689 3.45596 9.47789 5.84198 8.9584C5.78838 9.60301 5.75898 10.2578 5.75898 10.9126C5.75898 11.5674 5.78839 12.2222 5.84198 12.8668C3.45596 12.3473 2.1875 11.4563 2.1875 10.9126ZM10 3.1001C10.5437 3.1001 11.4347 4.36856 11.9542 6.75458C11.3096 6.70098 10.6548 6.67157 10 6.67157C9.34517 6.67157 8.69041 6.70099 8.04581 6.75458C8.56529 4.36856 9.45629 3.1001 10 3.1001ZM17.2462 8.00714C16.3078 7.56352 15.1568 7.23138 13.9045 7.00807C13.6812 5.75582 13.3491 4.60481 12.9055 3.66635C14.8782 4.4603 16.4523 6.03436 17.2462 8.00714ZM7.09454 3.66639C6.65093 4.60485 6.31878 5.75585 6.09547 7.00807C4.84326 7.23138 3.69225 7.56345 2.75379 8.0071C3.54774 6.03432 5.12181 4.46034 7.09454 3.66639ZM2.75383 13.8181C3.69229 14.2617 4.84326 14.5938 6.09547 14.8171C6.31878 16.0693 6.65085 17.2203 7.0945 18.1588C5.12181 17.3648 3.54778 15.7908 2.75383 13.8181ZM12.9055 18.1588C13.3491 17.2203 13.6812 16.0693 13.9045 14.8171C15.1567 14.5938 16.3077 14.2617 17.2462 13.8181C16.4523 15.7908 14.8783 17.3649 12.9055 18.1588Z" fill="white"/>
</g>
<defs>
<clipPath id="clip0_123_9612">
<rect width="20" height="20" fill="white" transform="translate(0 0.912598)"/>
</clipPath>
</defs>
</svg>
