<svg width="16" height="17" viewBox="0 0 16 17" fill="none" xmlns="http://www.w3.org/2000/svg">
<g clip-path="url(#clip0_247_9870)">
<path d="M15.0769 1.92188H0.923077C0.413276 1.92188 0 2.33761 0 2.85045C0 3.36329 0.413276 3.77901 0.923077 3.77901H15.0769C15.5867 3.77901 16 3.36329 16 2.85045C16 2.33761 15.5867 1.92188 15.0769 1.92188Z" fill="#EAE5D9"/>
<path d="M15.0769 7.49341H0.923077C0.413276 7.49341 0 7.90915 0 8.42198C0 8.93482 0.413276 9.35055 0.923077 9.35055H15.0769C15.5867 9.35055 16 8.93482 16 8.42198C16 7.90915 15.5867 7.49341 15.0769 7.49341Z" fill="#EAE5D9"/>
<path d="M15.0769 13.0647H0.923077C0.413276 13.0647 0 13.4804 0 13.9932C0 14.5061 0.413276 14.9218 0.923077 14.9218H15.0769C15.5867 14.9218 16 14.5061 16 13.9932C16 13.4804 15.5867 13.0647 15.0769 13.0647Z" fill="#EAE5D9"/>
</g>
<defs>
<clipPath id="clip0_247_9870">
<rect width="16" height="16" fill="white" transform="translate(0 0.421875)"/>
</clipPath>
</defs>
</svg>
