<svg width="30" height="31" viewBox="0 0 30 31" fill="none" xmlns="http://www.w3.org/2000/svg">
<g clip-path="url(#clip0_247_9428)">
<g clip-path="url(#clip1_247_9428)">
<path d="M57.6 36.0062C55.5 36.0062 53.5 37.1063 52.4 38.9062L45.6 36.6063C46.3 33.4063 45.8 30.1062 44.3 27.2062L49.9 23.4062C51 24.4062 52.5 25.0063 54 25.0063C57.4 25.0063 60.1 22.3063 60.1 18.9062C60.1 15.5062 57.4 12.8062 54 12.8062C50.6 12.8062 47.9 15.5062 47.9 18.9062C47.9 19.7063 48 20.4063 48.3 21.0063L42.7 24.9062C40.4 22.2062 37.3 20.5063 33.8 20.1063L33.9 13.0063C36.7 12.3063 38.6 9.90625 38.6 7.00625C38.6 3.60625 35.9 0.90625 32.5 0.90625C29.1 0.90625 26.4 3.60625 26.4 7.00625C26.4 9.80625 28.3 12.3063 31.1 13.0063L31 20.0063C25.3 20.5063 20.6 24.5062 19.1 29.8062L12.4 28.6063C12.2 25.3063 9.5 22.8062 6.3 22.8062C2.7 22.8062 0 25.5062 0 28.9062C0 32.3063 2.7 35.0062 6.1 35.0062C8.5 35.0062 10.7 33.6062 11.7 31.3062L18.4 32.5063C18.4 32.9063 18.4 33.2063 18.3 33.6063C18.3 38.0063 20.4 41.9062 23.6 44.4062L19.8 50.5062C16.6 49.4062 13.1 51.1063 12 54.3063C11.8 54.9063 11.7 55.6063 11.7 56.3063C11.7 59.7063 14.4 62.4062 17.8 62.4062C21.2 62.4062 23.9 59.7063 23.9 56.3063C23.9 54.7063 23.3 53.1062 22.1 52.0062L25.9 45.9062C27.8 46.8062 29.8 47.3063 31.9 47.3063C37.5 47.3063 42.3 44.0062 44.4 39.2062L51.2 41.5062V42.0062C51.2 45.4062 53.9 48.1063 57.3 48.1063C60.7 48.1063 63.4 45.4062 63.4 42.0062C63.7 38.7062 61 36.0062 57.6 36.0062ZM54 15.7063C55.8 15.7063 57.3 17.2063 57.3 19.0063C57.3 20.8063 55.8 22.3062 54 22.3062C52.2 22.3062 50.7 20.8063 50.7 19.0063C50.7 17.1063 52.2 15.7063 54 15.7063ZM6.1 32.2062C4.3 32.2062 2.8 30.7062 2.8 28.9062C2.8 27.1063 4.3 25.6063 6.1 25.6063C7.9 25.6063 9.4 27.1063 9.4 28.9062C9.4 30.7062 7.9 32.2062 6.1 32.2062ZM18 59.7062C16.2 59.7062 14.7 58.2062 14.7 56.4062C14.7 54.6063 16.2 53.1063 18 53.1063C19.8 53.1063 21.3 54.6063 21.3 56.4062C21.2 58.2062 19.8 59.7062 18 59.7062ZM29.1 7.00625C29.1 5.20625 30.6 3.70625 32.4 3.70625C34.2 3.70625 35.7 5.20625 35.7 7.00625C35.7 8.80625 34.2 10.3062 32.4 10.3062C30.6 10.3062 29.1 8.80625 29.1 7.00625ZM32.1 44.6063C26.1 44.6063 21.2 39.7062 21.2 33.7062C21.2 27.7062 26.1 22.8062 32.1 22.8062C38.1 22.8062 43 27.7062 43 33.7062C43 39.7062 38.1 44.6063 32.1 44.6063ZM57.6 45.4062C55.8 45.4062 54.3 43.9063 54.3 42.1063C54.3 40.3063 55.8 38.8063 57.6 38.8063C59.4 38.8063 60.9 40.3063 60.9 42.1063C60.9 43.9063 59.4 45.4062 57.6 45.4062Z" fill="#E6E0D3"/>
</g>
</g>
<defs>
<clipPath id="clip0_247_9428">
<rect width="30" height="30" fill="white" transform="translate(0 0.90625)"/>
</clipPath>
<clipPath id="clip1_247_9428">
<rect width="63.7" height="61.6" fill="white" transform="translate(0 0.90625)"/>
</clipPath>
</defs>
</svg>
