<svg width="167" height="50" viewBox="0 0 167 50" fill="none" xmlns="http://www.w3.org/2000/svg">
<rect width="167" height="50" rx="25" fill="#E6E0D3"/>
<path fill-rule="evenodd" clip-rule="evenodd" d="M82.2104 18H81.2704V10.76H82.2104V18ZM54.9004 18H57.3604C58.3137 18 59.1171 17.6883 59.7704 17.065C60.4237 16.4417 60.7504 15.5767 60.7504 14.47C60.7504 13.3567 60.4271 12.485 59.7804 11.855C59.1337 11.225 58.3337 10.91 57.3804 10.91H54.9004V18ZM57.3304 17.13H55.8804V11.78H57.3504C58.0437 11.78 58.6154 12.0133 59.0654 12.48C59.5154 12.9467 59.7404 13.61 59.7404 14.47C59.7404 15.3233 59.5121 15.98 59.0554 16.44C58.5987 16.9 58.0237 17.13 57.3304 17.13ZM62.9904 16.86C63.2837 17.16 63.6404 17.31 64.0604 17.31C64.4804 17.31 64.8354 17.1583 65.1254 16.855C65.4154 16.5517 65.5604 16.13 65.5604 15.59C65.5604 15.0567 65.4154 14.6383 65.1254 14.335C64.8354 14.0317 64.4804 13.88 64.0604 13.88C63.6404 13.88 63.2854 14.0317 62.9954 14.335C62.7054 14.6383 62.5604 15.0567 62.5604 15.59C62.5604 16.13 62.7037 16.5533 62.9904 16.86ZM64.0604 13.04C63.3471 13.04 62.7571 13.2833 62.2904 13.77C61.8304 14.25 61.6004 14.8567 61.6004 15.59C61.6004 16.33 61.8304 16.9417 62.2904 17.425C62.7504 17.9083 63.3404 18.15 64.0604 18.15C64.7804 18.15 65.3704 17.9083 65.8304 17.425C66.2904 16.9417 66.5204 16.33 66.5204 15.59C66.5204 14.8567 66.2887 14.2483 65.8254 13.765C65.3621 13.2817 64.7737 13.04 64.0604 13.04ZM70.4304 13.19H71.4004L72.6504 16.81L73.7104 13.19H74.7004L73.1404 18H72.1704L70.8904 14.34L69.6404 18H68.6504L67.0704 13.19H68.1004L69.1804 16.81L70.4304 13.19ZM76.5904 18V15.22C76.5904 14.84 76.6887 14.525 76.8854 14.275C77.0821 14.025 77.3571 13.9 77.7104 13.9C78.4571 13.9 78.8304 14.3033 78.8304 15.11V18H79.7704V14.95C79.7704 14.39 79.6221 13.9333 79.3254 13.58C79.0287 13.2267 78.6037 13.05 78.0504 13.05C77.3837 13.05 76.8904 13.3267 76.5704 13.88V13.19H75.6504V18H76.5904ZM85.8704 17.31C85.4504 17.31 85.0937 17.16 84.8004 16.86C84.5137 16.5533 84.3704 16.13 84.3704 15.59C84.3704 15.0567 84.5154 14.6383 84.8054 14.335C85.0954 14.0317 85.4504 13.88 85.8704 13.88C86.2904 13.88 86.6454 14.0317 86.9354 14.335C87.2254 14.6383 87.3704 15.0567 87.3704 15.59C87.3704 16.13 87.2254 16.5517 86.9354 16.855C86.6454 17.1583 86.2904 17.31 85.8704 17.31ZM84.1004 13.77C84.5671 13.2833 85.1571 13.04 85.8704 13.04C86.5837 13.04 87.1721 13.2817 87.6354 13.765C88.0987 14.2483 88.3304 14.8567 88.3304 15.59C88.3304 16.33 88.1004 16.9417 87.6404 17.425C87.1804 17.9083 86.5904 18.15 85.8704 18.15C85.1504 18.15 84.5604 17.9083 84.1004 17.425C83.6404 16.9417 83.4104 16.33 83.4104 15.59C83.4104 14.8567 83.6404 14.25 84.1004 13.77ZM89.6304 15.715C89.3637 15.965 89.2304 16.2967 89.2304 16.71C89.2304 17.1033 89.3804 17.4417 89.6804 17.725C89.9804 18.0083 90.3671 18.15 90.8404 18.15C91.2271 18.15 91.5487 18.07 91.8054 17.91C92.0621 17.75 92.2571 17.5633 92.3904 17.35C92.3904 17.5833 92.4071 17.8 92.4404 18H93.3604C93.3204 17.76 93.3004 17.4967 93.3004 17.21V14.8C93.3004 14.2867 93.1371 13.865 92.8104 13.535C92.4837 13.205 91.9804 13.04 91.3004 13.04C90.7804 13.04 90.3337 13.185 89.9604 13.475C89.5871 13.765 89.3771 14.14 89.3304 14.6L90.2304 14.81C90.2637 14.5167 90.3737 14.2817 90.5604 14.105C90.7471 13.9283 91.0004 13.84 91.3204 13.84C91.6671 13.84 91.9271 13.92 92.1004 14.08C92.2737 14.24 92.3604 14.4467 92.3604 14.7C92.3604 14.9067 92.2371 15.0267 91.9904 15.06L90.6904 15.25C90.2504 15.31 89.8971 15.465 89.6304 15.715ZM90.9704 17.36C91.3904 17.36 91.7271 17.2467 91.9804 17.02C92.2337 16.7933 92.3604 16.4333 92.3604 15.94V15.72L90.8904 15.94C90.6771 15.9733 90.5071 16.05 90.3804 16.17C90.2537 16.29 90.1904 16.4533 90.1904 16.66C90.1904 16.8467 90.2621 17.01 90.4054 17.15C90.5487 17.29 90.7371 17.36 90.9704 17.36ZM95.6954 16.82C95.4454 16.5 95.3204 16.0867 95.3204 15.58C95.3204 15.08 95.4504 14.6733 95.7104 14.36C95.9704 14.0467 96.3137 13.89 96.7404 13.89C97.1671 13.89 97.5037 14.0433 97.7504 14.35C97.9971 14.6567 98.1204 15.06 98.1204 15.56C98.1204 16.0667 97.9937 16.4833 97.7404 16.81C97.4871 17.1367 97.1504 17.3 96.7304 17.3C96.2904 17.3 95.9454 17.14 95.6954 16.82ZM98.1335 17.5294L98.1304 17.27C98.0037 17.5167 97.8121 17.7217 97.5554 17.885C97.2987 18.0483 96.9937 18.13 96.6404 18.13C95.9537 18.13 95.4021 17.8883 94.9854 17.405C94.5687 16.9217 94.3604 16.3133 94.3604 15.58C94.3604 14.88 94.5737 14.285 95.0004 13.795C95.4271 13.305 95.9737 13.06 96.6404 13.06C97.0337 13.06 97.3537 13.1383 97.6004 13.295C97.8471 13.4517 98.0171 13.6433 98.1104 13.87V10.76H99.0404V17.11C99.0404 17.4367 99.0571 17.7333 99.0904 18H98.1804C98.1554 17.86 98.1398 17.7031 98.1335 17.5294ZM105.2 17.31C104.78 17.31 104.424 17.16 104.13 16.86C103.844 16.5533 103.7 16.13 103.7 15.59C103.7 15.0567 103.845 14.6383 104.135 14.335C104.425 14.0317 104.78 13.88 105.2 13.88C105.62 13.88 105.975 14.0317 106.265 14.335C106.555 14.6383 106.7 15.0567 106.7 15.59C106.7 16.13 106.555 16.5517 106.265 16.855C105.975 17.1583 105.62 17.31 105.2 17.31ZM103.43 13.77C103.897 13.2833 104.487 13.04 105.2 13.04C105.914 13.04 106.502 13.2817 106.965 13.765C107.429 14.2483 107.66 14.8567 107.66 15.59C107.66 16.33 107.43 16.9417 106.97 17.425C106.51 17.9083 105.92 18.15 105.2 18.15C104.48 18.15 103.89 17.9083 103.43 17.425C102.97 16.9417 102.74 16.33 102.74 15.59C102.74 14.8567 102.97 14.25 103.43 13.77ZM109.8 18V15.22C109.8 14.84 109.899 14.525 110.095 14.275C110.292 14.025 110.567 13.9 110.92 13.9C111.667 13.9 112.04 14.3033 112.04 15.11V18H112.98V14.95C112.98 14.39 112.832 13.9333 112.535 13.58C112.239 13.2267 111.814 13.05 111.26 13.05C110.594 13.05 110.1 13.3267 109.78 13.88V13.19H108.86V18H109.8ZM118.24 11.67V13.19H119.28V14.04H118.24V16.54C118.24 16.7667 118.292 16.9333 118.395 17.04C118.499 17.1467 118.67 17.2 118.91 17.2C119.05 17.2 119.174 17.1867 119.28 17.16V17.96C119.12 18.02 118.907 18.05 118.64 18.05C118.227 18.05 117.9 17.93 117.66 17.69C117.42 17.45 117.3 17.1133 117.3 16.68V14.04H116.38V13.19H116.64C116.887 13.19 117.072 13.1217 117.195 12.985C117.319 12.8483 117.38 12.67 117.38 12.45V11.67H118.24ZM121.47 18V15.17C121.484 14.7967 121.587 14.4917 121.78 14.255C121.974 14.0183 122.244 13.9 122.59 13.9C123.337 13.9 123.71 14.3033 123.71 15.11V18H124.65V14.95C124.65 14.39 124.502 13.9333 124.205 13.58C123.909 13.2267 123.484 13.05 122.93 13.05C122.277 13.05 121.79 13.2833 121.47 13.75V10.76H120.53V18H121.47ZM126.76 15.1H129.39C129.377 14.74 129.257 14.445 129.03 14.215C128.804 13.985 128.484 13.87 128.07 13.87C127.697 13.87 127.39 13.9917 127.15 14.235C126.91 14.4783 126.78 14.7667 126.76 15.1ZM130.34 16.63L129.53 16.35C129.317 16.9967 128.867 17.32 128.18 17.32C127.774 17.32 127.432 17.1833 127.155 16.91C126.879 16.6367 126.737 16.2867 126.73 15.86H130.35C130.364 15.78 130.37 15.68 130.37 15.56C130.37 14.7933 130.167 14.1817 129.76 13.725C129.354 13.2683 128.787 13.04 128.06 13.04C127.434 13.04 126.894 13.28 126.44 13.76C125.987 14.24 125.76 14.8467 125.76 15.58C125.76 16.3667 125.995 16.9917 126.465 17.455C126.935 17.9183 127.507 18.15 128.18 18.15C128.72 18.15 129.18 18.0083 129.56 17.725C129.94 17.4417 130.2 17.0767 130.34 16.63Z" fill="black"/>
<path fill-rule="evenodd" clip-rule="evenodd" d="M63.1202 37H65.2162L60.8002 25.656H58.5762L54.1602 37H56.1922L57.2482 34.152H62.0482L63.1202 37ZM59.6482 27.736L61.3762 32.376H57.9202L59.6482 27.736ZM68.4162 40.04V36.12C68.8162 36.712 69.6642 37.192 70.7842 37.192C73.0242 37.192 74.4482 35.432 74.4482 33.096C74.4482 30.792 73.1522 29.032 70.8482 29.032C69.6482 29.032 68.7522 29.592 68.3682 30.264V29.208H66.5762V40.04H68.4162ZM72.5922 33.096C72.5922 34.584 71.7282 35.544 70.4962 35.544C69.2802 35.544 68.4002 34.584 68.4002 33.096C68.4002 31.64 69.2802 30.68 70.4962 30.68C71.7442 30.68 72.5922 31.64 72.5922 33.096ZM78.0802 40.04V36.12C78.4802 36.712 79.3282 37.192 80.4482 37.192C82.6882 37.192 84.1122 35.432 84.1122 33.096C84.1122 30.792 82.8162 29.032 80.5122 29.032C79.3122 29.032 78.4162 29.592 78.0322 30.264V29.208H76.2402V40.04H78.0802ZM82.2562 33.096C82.2562 34.584 81.3922 35.544 80.1602 35.544C78.9442 35.544 78.0642 34.584 78.0642 33.096C78.0642 31.64 78.9442 30.68 80.1602 30.68C81.4082 30.68 82.2562 31.64 82.2562 33.096ZM97.4882 28.312C97.2322 27.048 96.1922 25.416 93.5202 25.416C91.4082 25.416 89.6642 26.984 89.6642 28.888C89.6642 30.584 90.8162 31.72 92.5442 32.072L94.1442 32.408C95.1202 32.616 95.6642 33.208 95.6642 33.944C95.6642 34.824 94.9602 35.512 93.6002 35.512C91.9682 35.512 91.1202 34.424 91.0082 33.24L89.2162 33.752C89.3922 35.384 90.7202 37.24 93.6002 37.24C96.1922 37.24 97.6162 35.56 97.6162 33.8C97.6162 32.2 96.5442 30.936 94.5442 30.536L92.9122 30.2C92.0322 30.008 91.5842 29.464 91.5842 28.744C91.5842 27.88 92.3842 27.112 93.5362 27.112C95.0562 27.112 95.6482 28.152 95.7602 28.856L97.4882 28.312ZM101.808 26.824H100.128V27.992C100.128 28.68 99.7602 29.208 98.9282 29.208H98.5282V30.856H99.9682V34.776C99.9682 36.232 100.864 37.096 102.304 37.096C102.976 37.096 103.328 36.968 103.44 36.92V35.384L103.235 35.4159C103.108 35.4323 102.946 35.448 102.8 35.448C102.112 35.448 101.808 35.16 101.808 34.472V30.856H103.424V29.208H101.808V26.824ZM108.72 35.576C107.584 35.576 106.544 34.712 106.544 33.096C106.544 31.48 107.584 30.648 108.72 30.648C109.872 30.648 110.896 31.48 110.896 33.096C110.896 34.728 109.872 35.576 108.72 35.576ZM108.72 28.968C106.4 28.968 104.688 30.712 104.688 33.096C104.688 35.496 106.4 37.24 108.72 37.24C111.056 37.24 112.768 35.496 112.768 33.096C112.768 30.712 111.056 28.968 108.72 28.968ZM119.12 29.16C119.04 29.144 118.848 29.112 118.624 29.112C117.6 29.112 116.736 29.608 116.368 30.456V29.208H114.56V37H116.416V33.288C116.416 31.832 117.072 31 118.512 31C118.704 31 118.912 31.016 119.12 31.048V29.16ZM121.936 32.248C122 31.416 122.672 30.52 123.84 30.52C125.12 30.52 125.728 31.336 125.76 32.248H121.936ZM125.968 34.28L127.536 34.776C127.12 36.136 125.888 37.24 124.016 37.24C121.904 37.24 120.032 35.704 120.032 33.064C120.032 30.6 121.856 28.968 123.824 28.968C126.224 28.968 127.632 30.552 127.632 33.016C127.632 33.32 127.6 33.576 127.584 33.608H121.888C121.936 34.792 122.864 35.64 124.016 35.64C125.136 35.64 125.712 35.048 125.968 34.28Z" fill="black"/>
<path fill-rule="evenodd" clip-rule="evenodd" d="M31.3938 14.5376C32.263 13.6005 32.8511 12.2986 32.6906 11C31.4371 11.0451 29.9185 11.7405 29.0204 12.6773C28.2133 13.5075 27.5079 14.8334 27.6963 16.1059C29.0955 16.2022 30.5228 15.4737 31.3938 14.5376ZM34.0616 23.502C34.0346 20.5912 36.3495 19.1944 36.4534 19.1258C35.1524 17.1502 33.125 16.8795 32.4037 16.8493C30.6791 16.6669 29.0385 17.902 28.1625 17.902C27.2897 17.902 25.9395 16.8737 24.5086 16.9009C22.628 16.9318 20.8947 18.035 19.9278 19.7834C17.974 23.3 19.4266 28.5109 21.3313 31.3629C22.2618 32.7597 23.3706 34.3261 24.8264 34.269C26.2303 34.2131 26.7604 33.3279 28.4561 33.3279C30.1509 33.3279 30.6278 34.269 32.1111 34.2407C33.6204 34.2131 34.5769 32.8174 35.5009 31.4171C36.5685 29.7983 37.008 28.23 37.0347 28.1505C37.0008 28.133 34.0923 26.979 34.0616 23.502Z" fill="black"/>
</svg>
