<svg width="167" height="50" viewBox="0 0 167 50" fill="none" xmlns="http://www.w3.org/2000/svg">
<rect width="167" height="50" rx="25" fill="black"/>
<path fill-rule="evenodd" clip-rule="evenodd" d="M73.7102 12.3699C73.7102 12.5566 73.7735 12.7166 73.9002 12.8499C74.0335 12.9766 74.1935 13.0399 74.3802 13.0399C74.5669 13.0399 74.7269 12.9749 74.8602 12.8449C74.9935 12.7149 75.0602 12.5566 75.0602 12.3699C75.0602 12.1766 74.9935 12.0149 74.8602 11.8849C74.7269 11.7549 74.5669 11.6899 74.3802 11.6899C74.1935 11.6899 74.0352 11.7566 73.9052 11.8899C73.7752 12.0233 73.7102 12.1833 73.7102 12.3699ZM60.2502 18.9999H61.0402V15.5299H57.6502V16.4099H60.1102C60.0969 16.6099 60.0485 16.8099 59.9652 17.0099C59.8819 17.2099 59.7585 17.4083 59.5952 17.6049C59.4319 17.8016 59.2052 17.9599 58.9152 18.0799C58.6252 18.1999 58.2935 18.2599 57.9202 18.2599C57.2402 18.2599 56.6585 18.0149 56.1752 17.5249C55.6919 17.0349 55.4502 16.3433 55.4502 15.4499C55.4502 14.5633 55.6969 13.8766 56.1902 13.3899C56.6835 12.9033 57.2735 12.6599 57.9602 12.6599C58.5069 12.6599 58.9785 12.8016 59.3752 13.0849C59.7719 13.3683 60.0502 13.7666 60.2102 14.2799L61.1002 13.8999C60.8935 13.2533 60.5085 12.7349 59.9452 12.3449C59.3819 11.9549 58.7202 11.7599 57.9602 11.7599C57.3602 11.7599 56.7985 11.8966 56.2752 12.1699C55.7519 12.4433 55.3169 12.8666 54.9702 13.4399C54.6235 14.0133 54.4502 14.6833 54.4502 15.4499C54.4502 16.2166 54.6152 16.8866 54.9452 17.4599C55.2752 18.0333 55.6969 18.4583 56.2102 18.7349C56.7235 19.0116 57.2835 19.1499 57.8902 19.1499C58.4435 19.1499 58.9169 19.0366 59.3102 18.8099C59.7035 18.5833 59.9869 18.3133 60.1602 17.9999L60.2502 18.9999ZM65.6902 16.0999H63.0602C63.0802 15.7666 63.2102 15.4783 63.4502 15.2349C63.6902 14.9916 63.9969 14.8699 64.3702 14.8699C64.7835 14.8699 65.1035 14.9849 65.3302 15.2149C65.5569 15.4449 65.6769 15.7399 65.6902 16.0999ZM65.8302 17.3499L66.6402 17.6299C66.5002 18.0766 66.2402 18.4416 65.8602 18.7249C65.4802 19.0083 65.0202 19.1499 64.4802 19.1499C63.8069 19.1499 63.2352 18.9183 62.7652 18.4549C62.2952 17.9916 62.0602 17.3666 62.0602 16.5799C62.0602 15.8466 62.2869 15.2399 62.7402 14.7599C63.1935 14.2799 63.7335 14.0399 64.3602 14.0399C65.0869 14.0399 65.6535 14.2683 66.0602 14.7249C66.4669 15.1816 66.6702 15.7933 66.6702 16.5599C66.6702 16.6799 66.6635 16.7799 66.6502 16.8599H63.0302C63.0369 17.2866 63.1785 17.6366 63.4552 17.9099C63.7319 18.1833 64.0735 18.3199 64.4802 18.3199C65.1669 18.3199 65.6169 17.9966 65.8302 17.3499ZM69.1302 14.1899V12.6699H68.2702V13.4499C68.2702 13.6699 68.2085 13.8483 68.0852 13.9849C67.9619 14.1216 67.7769 14.1899 67.5302 14.1899H67.2702V15.0399H68.1902V17.6799C68.1902 18.1133 68.3102 18.4499 68.5502 18.6899C68.7902 18.9299 69.1169 19.0499 69.5302 19.0499C69.7969 19.0499 70.0102 19.0199 70.1702 18.9599V18.1599C70.0635 18.1866 69.9402 18.1999 69.8002 18.1999C69.5602 18.1999 69.3885 18.1466 69.2852 18.0399C69.1819 17.9333 69.1302 17.7666 69.1302 17.5399V15.0399H70.1702V14.1899H69.1302ZM74.8502 18.9999H73.9202V14.1899H74.8502V18.9999ZM77.7102 12.6699V14.1899H78.7502V15.0399H77.7102V17.5399C77.7102 17.7666 77.7619 17.9333 77.8652 18.0399C77.9685 18.1466 78.1402 18.1999 78.3802 18.1999C78.5202 18.1999 78.6435 18.1866 78.7502 18.1599V18.9599C78.5902 19.0199 78.3769 19.0499 78.1102 19.0499C77.6969 19.0499 77.3702 18.9299 77.1302 18.6899C76.8902 18.4499 76.7702 18.1133 76.7702 17.6799V15.0399H75.8502V14.1899H76.1102C76.3569 14.1899 76.5419 14.1216 76.6652 13.9849C76.7885 13.8483 76.8502 13.6699 76.8502 13.4499V12.6699H77.7102ZM84.5602 18.3099C84.1402 18.3099 83.7835 18.1599 83.4902 17.8599C83.2035 17.5533 83.0602 17.1299 83.0602 16.5899C83.0602 16.0566 83.2052 15.6383 83.4952 15.3349C83.7852 15.0316 84.1402 14.8799 84.5602 14.8799C84.9802 14.8799 85.3352 15.0316 85.6252 15.3349C85.9152 15.6383 86.0602 16.0566 86.0602 16.5899C86.0602 17.1299 85.9152 17.5516 85.6252 17.8549C85.3352 18.1583 84.9802 18.3099 84.5602 18.3099ZM82.7902 14.7699C83.2569 14.2833 83.8469 14.0399 84.5602 14.0399C85.2735 14.0399 85.8619 14.2816 86.3252 14.7649C86.7885 15.2483 87.0202 15.8566 87.0202 16.5899C87.0202 17.3299 86.7902 17.9416 86.3302 18.4249C85.8702 18.9083 85.2802 19.1499 84.5602 19.1499C83.8402 19.1499 83.2502 18.9083 82.7902 18.4249C82.3302 17.9416 82.1002 17.3299 82.1002 16.5899C82.1002 15.8566 82.3302 15.2499 82.7902 14.7699ZM89.1602 18.9999V16.2199C89.1602 15.8399 89.2585 15.5249 89.4552 15.2749C89.6519 15.0249 89.9269 14.8999 90.2802 14.8999C91.0269 14.8999 91.4002 15.3033 91.4002 16.1099V18.9999H92.3402V15.9499C92.3402 15.3899 92.1919 14.9333 91.8952 14.5799C91.5985 14.2266 91.1735 14.0499 90.6202 14.0499C89.9535 14.0499 89.4602 14.3266 89.1402 14.8799V14.1899H88.2202V18.9999H89.1602Z" fill="#E6E0D3"/>
<path fill-rule="evenodd" clip-rule="evenodd" d="M65.4239 30.256V36H63.8719L63.7279 34.56C63.2319 35.392 62.0639 36.24 60.2559 36.24C57.2959 36.24 54.6719 34.064 54.6719 30.32C54.6719 26.592 57.4399 24.416 60.3839 24.416C63.1359 24.416 64.8959 26 65.5039 27.872L63.6959 28.56C63.3119 27.28 62.1919 26.192 60.3839 26.192C58.5439 26.192 56.6239 27.504 56.6239 30.32C56.6239 33.088 58.4159 34.48 60.3679 34.48C62.6559 34.48 63.5199 32.912 63.6159 31.936H59.8719V30.256H65.4239ZM68.8319 32.096C68.8319 33.712 69.8719 34.576 71.0079 34.576C72.1599 34.576 73.1839 33.728 73.1839 32.096C73.1839 30.48 72.1599 29.648 71.0079 29.648C69.8719 29.648 68.8319 30.48 68.8319 32.096ZM71.0079 27.968C68.6879 27.968 66.9759 29.712 66.9759 32.096C66.9759 34.496 68.6879 36.24 71.0079 36.24C73.3439 36.24 75.0559 34.496 75.0559 32.096C75.0559 29.712 73.3439 27.968 71.0079 27.968ZM78.0959 32.096C78.0959 33.712 79.1359 34.576 80.2719 34.576C81.4239 34.576 82.4479 33.728 82.4479 32.096C82.4479 30.48 81.4239 29.648 80.2719 29.648C79.1359 29.648 78.0959 30.48 78.0959 32.096ZM80.2719 27.968C77.9519 27.968 76.2399 29.712 76.2399 32.096C76.2399 34.496 77.9519 36.24 80.2719 36.24C82.6079 36.24 84.3199 34.496 84.3199 32.096C84.3199 29.712 82.6079 27.968 80.2719 27.968ZM89.2639 39.28C87.1999 39.28 85.7599 38 85.5519 36.432L87.2639 35.984C87.3919 36.944 88.1439 37.664 89.2159 37.664C90.6879 37.664 91.4239 36.912 91.4239 35.328V34.512C91.0879 35.12 90.3039 35.648 89.1679 35.648C87.0879 35.648 85.5679 34.048 85.5679 31.856C85.5679 29.776 87.0239 28.064 89.1679 28.064C90.3839 28.064 91.1359 28.56 91.4719 29.2V28.208H93.2639V35.264C93.2639 37.344 92.1919 39.28 89.2639 39.28ZM89.4719 34.064C88.2559 34.064 87.4399 33.216 87.4399 31.856C87.4399 30.528 88.2879 29.664 89.4719 29.664C90.6239 29.664 91.4719 30.528 91.4719 31.856C91.4719 33.2 90.6559 34.064 89.4719 34.064ZM97.3919 24.416V36H95.5359V24.416H97.3919ZM101.088 31.248C101.152 30.416 101.824 29.52 102.992 29.52C104.272 29.52 104.88 30.336 104.912 31.248H101.088ZM103.168 34.64C104.288 34.64 104.864 34.048 105.12 33.28L106.688 33.776C106.272 35.136 105.04 36.24 103.168 36.24C101.056 36.24 99.1839 34.704 99.1839 32.064C99.1839 29.6 101.008 27.968 102.976 27.968C105.376 27.968 106.784 29.552 106.784 32.016C106.784 32.32 106.752 32.576 106.736 32.608H101.04C101.088 33.792 102.016 34.64 103.168 34.64ZM114.608 29.872V26.352H116.608C117.824 26.352 118.56 27.04 118.56 28.128C118.56 29.2 117.824 29.872 116.608 29.872H114.608ZM120.512 28.112C120.512 30.112 119.072 31.568 116.896 31.568H114.608V36H112.688V24.656H116.896C119.072 24.656 120.512 26.128 120.512 28.112ZM124.016 36V24.416H122.16V36H124.016ZM128.576 36.24C126.944 36.24 125.936 35.12 125.936 33.888C125.936 32.496 126.96 31.728 128.288 31.536L130.288 31.232C130.736 31.168 130.864 30.944 130.864 30.672C130.864 30.016 130.416 29.488 129.392 29.488C128.416 29.488 127.872 30.112 127.792 30.896L126.096 30.512C126.24 29.168 127.456 27.968 129.376 27.968C131.776 27.968 132.688 29.328 132.688 30.88L132.689 34.9229C132.697 35.3097 132.727 35.6107 132.752 35.7973L132.784 36H131.056C131.04 35.952 130.976 35.632 130.976 35.008C130.608 35.6 129.84 36.24 128.576 36.24ZM128.928 34.784C128.192 34.784 127.792 34.304 127.792 33.776C127.792 33.136 128.256 32.816 128.832 32.72L130.864 32.416V32.768C130.864 34.288 129.968 34.784 128.928 34.784ZM135.312 39.152H137.296L142.256 28.208H140.288L138.192 33.136L135.952 28.208H133.856L137.184 35.072L135.312 39.152Z" fill="#E6E0D3"/>
<path d="M20.0958 14.1296C20.0395 14.3303 20 14.5455 20 14.7923V35.1068C20 35.3501 20.038 35.5643 20.0932 35.7623L31.4206 24.9604L20.0958 14.1296Z" fill="#48A0DC"/>
<path d="M22.6158 13.3406C22.0886 13.0169 21.5688 12.9359 21.1299 13.0477L32.5046 23.9264L35.8412 20.7453L22.6158 13.3406Z" fill="#88C057"/>
<path d="M40.7172 23.4754L37.1867 21.4988L33.5713 24.9465L37.2546 28.47L40.69 26.5714C42.3653 25.6103 41.7534 24.0615 40.7172 23.4754Z" fill="#FFCC66"/>
<path d="M32.4866 25.98L21.0977 36.8392C21.5432 36.9649 22.075 36.8902 22.6157 36.5584L35.8824 29.2275L32.4866 25.98Z" fill="#ED7161"/>
</svg>
