<svg width="100" height="100" viewBox="0 8 16" fill="none" xmlns="http://www.w3.org/2000/svg"><g clip-path="url(#clip0_1_32)">
<path d="M32.5 48c0-8.56 6.94-15.5 15.5-15.5 8.56 0 15.5 6.94 15.5 15.5 0 8.56-6.94 15.5-15.5 15.5-8.56 0-15.5-6.94-15.5-15.5z" fill="#F5F5F5"/>
<path opacity=".8" d="M52.28 48.06l-4.91-4.9a.525.525 0 00-.75 0l-.46.46a.529.529 0 000 .76l4.05 4.06-4.05 4.07a.529.529 0 000 .76l.46.46c.1.1.24.16.38.16s.27-.05.38-.16l4.9-4.92c.21-.21.21-.54 0-.75z" fill="#222325"/><path d="M32.5 48c0-8.56 6.94-15.5 15.5-15.5 8.56 0 15.5 6.94 15.5 15.5 0 8.56-6.94 15.5-15.5 15.5-8.56 0-15.5-6.94-15.5-15.5z" stroke="#EFEFF0"/></g>
<defs><clipPath id="clip0_1_32"><path fill="#fff" transform="translate(32 32)" d="M0 0h32v32H0z"/></clipPath><clipPath id="clip1_1_32"><path fill="#fff" transform="matrix(-1 0 0 1 32 32)" d="M0 0h32v32H0z"/></clipPath><clipPath id="clip2_1_32"><path fill="#fff" transform="matrix(-1 0 0 1 32 0)" d="M0 0h32v32H0z"/></clipPath><clipPath id="clip3_1_32"><path fill="#fff" transform="translate(32)" d="M0 0h32v32H0z"/></clipPath></defs></svg>