<svg width="20" height="20" viewBox="0 0 20 20" fill="none" xmlns="http://www.w3.org/2000/svg">
<path fill-rule="evenodd" clip-rule="evenodd" d="M9.99994 5.625C10.3451 5.625 10.6249 5.90482 10.6249 6.25V10C10.6249 10.3452 10.3451 10.625 9.99994 10.625C9.65476 10.625 9.37494 10.3452 9.37494 10V6.25C9.37494 5.90482 9.65476 5.625 9.99994 5.625Z" fill="#8FA0AF"/>
<path fill-rule="evenodd" clip-rule="evenodd" d="M9.45868 9.68763C9.63117 9.38864 10.0134 9.28609 10.3124 9.45859L13.5624 11.3336C13.8614 11.5061 13.9639 11.8883 13.7914 12.1873C13.6189 12.4863 13.2367 12.5888 12.9377 12.4163L9.68772 10.5413C9.38873 10.3688 9.28618 9.98661 9.45868 9.68763Z" fill="#8FA0AF"/>
<path fill-rule="evenodd" clip-rule="evenodd" d="M2.48438 4.039C2.82955 4.039 3.10938 4.31882 3.10938 4.664V7.164H5.60938C5.95455 7.164 6.23438 7.44382 6.23438 7.789C6.23438 8.13418 5.95455 8.414 5.60938 8.414H2.48438C2.1392 8.414 1.85938 8.13418 1.85938 7.789V4.664C1.85938 4.31882 2.1392 4.039 2.48438 4.039Z" fill="#8FA0AF"/>
<path fill-rule="evenodd" clip-rule="evenodd" d="M8.53854 2.64456C9.99356 2.35468 11.5019 2.50284 12.8727 3.07032C14.2435 3.6378 15.4152 4.59909 16.2396 5.83259C17.0639 7.06609 17.504 8.51638 17.504 10C17.504 11.4836 17.0639 12.9339 16.2396 14.1674C15.4152 15.4009 14.2435 16.3622 12.8727 16.9297C11.5019 17.4972 9.99356 17.6453 8.53854 17.3554C7.08351 17.0656 5.74715 16.3506 4.6985 15.3011C4.45452 15.057 4.45469 14.6612 4.69886 14.4173C4.94304 14.1733 5.33877 14.1734 5.58275 14.4176C6.45662 15.2922 7.57026 15.888 8.78278 16.1295C9.9953 16.3711 11.2522 16.2476 12.3946 15.7747C13.5369 15.3018 14.5133 14.5008 15.2003 13.4728C15.8873 12.4449 16.254 11.2364 16.254 10C16.254 8.76365 15.8873 7.55508 15.2003 6.52716C14.5133 5.49924 13.5369 4.69817 12.3946 4.22527C11.2522 3.75237 9.9953 3.6289 8.78278 3.87047C7.57026 4.11204 6.45662 4.7078 5.58275 5.58239L5.58192 5.58322L2.92567 8.23166C2.68123 8.47538 2.2855 8.47479 2.04178 8.23036C1.79806 7.98592 1.79865 7.59019 2.04308 7.34647L4.6985 4.69887C4.69836 4.69901 4.69864 4.69873 4.6985 4.69887C5.74709 3.64959 7.08371 2.93441 8.53854 2.64456Z" fill="#8FA0AF"/>
</svg>
