<svg width="20" height="20" viewBox="0 0 20 20" fill="none" xmlns="http://www.w3.org/2000/svg">
<path fill-rule="evenodd" clip-rule="evenodd" d="M10 3.125C6.20304 3.125 3.125 6.20304 3.125 10C3.125 13.797 6.20304 16.875 10 16.875C13.797 16.875 16.875 13.797 16.875 10C16.875 6.20304 13.797 3.125 10 3.125ZM1.875 10C1.875 5.51269 5.51269 1.875 10 1.875C14.4873 1.875 18.125 5.51269 18.125 10C18.125 14.4873 14.4873 18.125 10 18.125C5.51269 18.125 1.875 14.4873 1.875 10Z" fill="#8FA0AF"/>
<path fill-rule="evenodd" clip-rule="evenodd" d="M2.30469 7.5C2.30469 7.15482 2.58451 6.875 2.92969 6.875H17.0703C17.4155 6.875 17.6953 7.15482 17.6953 7.5C17.6953 7.84518 17.4155 8.125 17.0703 8.125H2.92969C2.58451 8.125 2.30469 7.84518 2.30469 7.5Z" fill="#8FA0AF"/>
<path fill-rule="evenodd" clip-rule="evenodd" d="M2.30469 12.5C2.30469 12.1548 2.58451 11.875 2.92969 11.875H17.0703C17.4155 11.875 17.6953 12.1548 17.6953 12.5C17.6953 12.8452 17.4155 13.125 17.0703 13.125H2.92969C2.58451 13.125 2.30469 12.8452 2.30469 12.5Z" fill="#8FA0AF"/>
<path fill-rule="evenodd" clip-rule="evenodd" d="M8.36482 5.08635C7.83991 6.31201 7.5 8.04881 7.5 9.99997C7.5 11.9511 7.83991 13.6879 8.36482 14.9136C8.62775 15.5275 8.92479 15.9844 9.22279 16.2787C9.51811 16.5704 9.78004 16.6718 10 16.6718C10.22 16.6718 10.4819 16.5704 10.7772 16.2787C11.0752 15.9844 11.3722 15.5275 11.6352 14.9136C12.1601 13.6879 12.5 11.9511 12.5 9.99997C12.5 8.04881 12.1601 6.31201 11.6352 5.08635C11.3722 4.4724 11.0752 4.01551 10.7772 3.7212C10.4819 3.42954 10.22 3.32809 10 3.32809C9.78004 3.32809 9.51811 3.42954 9.22279 3.7212C8.92479 4.01551 8.62775 4.4724 8.36482 5.08635ZM8.34443 2.83183C8.79684 2.38502 9.35702 2.07809 10 2.07809C10.643 2.07809 11.2032 2.38502 11.6556 2.83183C12.1053 3.27601 12.4817 3.88772 12.7842 4.59425C13.3904 6.00954 13.75 7.92118 13.75 9.99997C13.75 12.0788 13.3904 13.9904 12.7842 15.4057C12.4817 16.1122 12.1053 16.7239 11.6556 17.1681C11.2032 17.6149 10.643 17.9218 10 17.9218C9.35702 17.9218 8.79684 17.6149 8.34443 17.1681C7.89469 16.7239 7.51834 16.1122 7.21576 15.4057C6.60964 13.9904 6.25 12.0788 6.25 9.99997C6.25 7.92118 6.60964 6.00954 7.21576 4.59425C7.51834 3.88772 7.89469 3.27601 8.34443 2.83183Z" fill="#8FA0AF"/>
</svg>
