<svg width="20" height="20" viewBox="0 0 20 20" fill="none" xmlns="http://www.w3.org/2000/svg">
<path fill-rule="evenodd" clip-rule="evenodd" d="M13.1518 6.27681C13.3959 6.03273 13.7916 6.03273 14.0357 6.27681L17.3169 9.55806C17.561 9.80214 17.561 10.1979 17.3169 10.4419L14.0357 13.7232C13.7916 13.9673 13.3959 13.9673 13.1518 13.7232C12.9077 13.4791 12.9077 13.0834 13.1518 12.8393L15.9911 10L13.1518 7.16069C12.9077 6.91661 12.9077 6.52089 13.1518 6.27681Z" fill="#8FA0AF"/>
<path fill-rule="evenodd" clip-rule="evenodd" d="M7.5 10C7.5 9.65482 7.77982 9.375 8.125 9.375H16.875C17.2202 9.375 17.5 9.65482 17.5 10C17.5 10.3452 17.2202 10.625 16.875 10.625H8.125C7.77982 10.625 7.5 10.3452 7.5 10Z" fill="#8FA0AF"/>
<path fill-rule="evenodd" clip-rule="evenodd" d="M2.86612 2.86612C3.10054 2.6317 3.41848 2.5 3.75 2.5H8.125C8.47018 2.5 8.75 2.77982 8.75 3.125C8.75 3.47018 8.47018 3.75 8.125 3.75L3.75 3.75L3.75 16.25H8.125C8.47018 16.25 8.75 16.5298 8.75 16.875C8.75 17.2202 8.47018 17.5 8.125 17.5H3.75C3.41848 17.5 3.10054 17.3683 2.86612 17.1339C2.6317 16.8995 2.5 16.5815 2.5 16.25V3.75C2.5 3.41848 2.6317 3.10054 2.86612 2.86612Z" fill="#8FA0AF"/>
</svg>
