<svg width="136" height="100" viewBox="0 0 136 100" fill="none" xmlns="http://www.w3.org/2000/svg">
<path d="M128.193 0H7.38C3.28 0 0 3.24 0 7.29V92.88C0 96.66 3.28 99.9 7.38 99.9H128.467C132.567 99.9 135.847 96.66 135.847 92.61V7.29C135.573 3.24 132.293 0 128.193 0ZM5.46667 92.61V7.29C5.46667 6.21 6.28667 5.4 7.38 5.4H128.467C129.56 5.4 130.38 6.21 130.38 7.29V59.94L109.333 30.51C108.787 29.7 107.967 29.43 107.147 29.43C106.327 29.43 105.507 29.97 104.96 30.78L86.1 59.94L72.16 41.31C71.6133 40.5 70.7933 40.23 69.9733 40.23C69.1533 40.23 68.3333 40.77 67.7867 41.31L28.4267 94.5H7.38C6.28667 94.5 5.46667 93.69 5.46667 92.61ZM128.193 94.5H35.26L69.9733 47.52L83.9133 66.15C84.46 66.96 85.28 67.23 86.1 67.23C86.92 67.23 87.74 66.69 88.2867 65.88L106.873 36.72L129.56 69.12V92.34C130.107 93.69 129.287 94.5 128.193 94.5Z" fill="#E9E9E9"/>
<path d="M32.7679 53.16C40.9679 53.16 47.5279 46.68 47.5279 38.58C47.5279 30.48 40.9679 24 32.7679 24C24.5679 24 18.0079 30.48 18.0079 38.58C17.7346 46.68 24.5679 53.16 32.7679 53.16ZM32.7679 29.13C37.9613 29.13 42.0613 33.18 42.0613 38.31C42.0613 43.44 37.9613 47.49 32.7679 47.49C27.5746 47.49 23.4746 43.44 23.4746 38.31C23.2013 33.45 27.5746 29.13 32.7679 29.13Z" fill="#E9E9E9"/>
</svg>
