<svg width="32" height="33" viewBox="0 0 32 33" fill="none" xmlns="http://www.w3.org/2000/svg">
<rect x="0.5" y="1.26953" width="31" height="31" rx="3.5" fill="#108A00"/>
<path d="M20.4503 11.3194C20.2525 11.3194 20.0592 11.378 19.8948 11.4879C19.7303 11.5978 19.6021 11.754 19.5264 11.9367C19.4508 12.1194 19.431 12.3205 19.4695 12.5145C19.5081 12.7084 19.6034 12.8866 19.7432 13.0265C19.8831 13.1663 20.0613 13.2616 20.2552 13.3002C20.4492 13.3387 20.6503 13.3189 20.833 13.2432C21.0157 13.1676 21.1719 13.0394 21.2818 12.8749C21.3917 12.7105 21.4503 12.5171 21.4503 12.3194C21.4503 12.0542 21.345 11.7998 21.1574 11.6123C20.9699 11.4247 20.7155 11.3194 20.4503 11.3194ZM24.2837 13.336C24.2675 12.6446 24.138 11.9605 23.9003 11.311C23.6884 10.7553 23.3586 10.2521 22.9337 9.83604C22.521 9.40889 22.0166 9.08118 21.4587 8.8777C20.8109 8.63284 20.126 8.50038 19.4337 8.48604C18.5503 8.43604 18.267 8.43604 16.0003 8.43604C13.7337 8.43604 13.4503 8.43604 12.567 8.48604C11.8746 8.50038 11.1898 8.63284 10.542 8.8777C9.98506 9.08324 9.4811 9.41067 9.06699 9.83604C8.63985 10.2487 8.31214 10.7531 8.10866 11.311C7.86379 11.9588 7.73133 12.6437 7.71699 13.336C7.66699 14.2194 7.66699 14.5027 7.66699 16.7694C7.66699 19.036 7.66699 19.3194 7.71699 20.2027C7.73133 20.8951 7.86379 21.5799 8.10866 22.2277C8.31214 22.7857 8.63985 23.2901 9.06699 23.7027C9.4811 24.1281 9.98506 24.4555 10.542 24.661C11.1898 24.9059 11.8746 25.0384 12.567 25.0527C13.4503 25.1027 13.7337 25.1027 16.0003 25.1027C18.267 25.1027 18.5503 25.1027 19.4337 25.0527C20.126 25.0384 20.8109 24.9059 21.4587 24.661C22.0166 24.4576 22.521 24.1298 22.9337 23.7027C23.3605 23.2882 23.6906 22.7845 23.9003 22.2277C24.138 21.5782 24.2675 20.8941 24.2837 20.2027C24.2837 19.3194 24.3337 19.036 24.3337 16.7694C24.3337 14.5027 24.3337 14.2194 24.2837 13.336ZM22.7837 20.1027C22.7776 20.6317 22.6818 21.1558 22.5003 21.6527C22.3673 22.0154 22.1536 22.3431 21.8753 22.611C21.605 22.8865 21.278 23.0997 20.917 23.236C20.4201 23.4175 19.896 23.5133 19.367 23.5194C18.5337 23.561 18.2253 23.5694 16.0337 23.5694C13.842 23.5694 13.5337 23.5694 12.7003 23.5194C12.1511 23.5297 11.6042 23.4451 11.0837 23.2694C10.7385 23.1261 10.4265 22.9134 10.167 22.6444C9.8904 22.3767 9.67936 22.0487 9.55033 21.686C9.34687 21.182 9.23403 20.646 9.21699 20.1027C9.21699 19.2694 9.16699 18.961 9.16699 16.7694C9.16699 14.5777 9.16699 14.2694 9.21699 13.436C9.22073 12.8952 9.31945 12.3593 9.50866 11.8527C9.65536 11.501 9.88055 11.1874 10.167 10.936C10.4202 10.6495 10.7331 10.4219 11.0837 10.2694C11.5916 10.0861 12.127 9.99027 12.667 9.98604C13.5003 9.98604 13.8087 9.93604 16.0003 9.93604C18.192 9.93604 18.5003 9.93604 19.3337 9.98604C19.8626 9.9921 20.3867 10.0879 20.8837 10.2694C21.2624 10.4099 21.6022 10.6384 21.8753 10.936C22.1484 11.192 22.3618 11.505 22.5003 11.8527C22.6855 12.3601 22.7814 12.8959 22.7837 13.436C22.8253 14.2694 22.8337 14.5777 22.8337 16.7694C22.8337 18.961 22.8253 19.2694 22.7837 20.1027ZM16.0003 12.4944C15.1552 12.496 14.3295 12.7481 13.6275 13.2189C12.9256 13.6896 12.379 14.3579 12.0567 15.1392C11.7344 15.9205 11.6509 16.7798 11.8168 17.6085C11.9827 18.4372 12.3905 19.1981 12.9887 19.7952C13.5869 20.3922 14.3487 20.7985 15.1777 20.9628C16.0067 21.1271 16.8659 21.042 17.6466 20.7182C18.4272 20.3943 19.0944 19.8464 19.5638 19.1436C20.0331 18.4407 20.2837 17.6145 20.2837 16.7694C20.2848 16.207 20.1747 15.6499 19.9597 15.1302C19.7447 14.6105 19.4291 14.1384 19.0311 13.7411C18.633 13.3438 18.1603 13.0291 17.6402 12.8151C17.12 12.6012 16.5627 12.4922 16.0003 12.4944ZM16.0003 19.5444C15.4515 19.5444 14.915 19.3816 14.4586 19.0767C14.0023 18.7718 13.6466 18.3384 13.4366 17.8313C13.2265 17.3243 13.1716 16.7663 13.2786 16.228C13.3857 15.6897 13.65 15.1952 14.0381 14.8071C14.4262 14.4191 14.9207 14.1548 15.459 14.0477C15.9972 13.9406 16.5552 13.9956 17.0623 14.2056C17.5693 14.4156 18.0027 14.7713 18.3077 15.2277C18.6126 15.684 18.7753 16.2205 18.7753 16.7694C18.7753 17.1338 18.7035 17.4946 18.5641 17.8313C18.4246 18.168 18.2202 18.4739 17.9625 18.7316C17.7049 18.9893 17.399 19.1937 17.0623 19.3331C16.7256 19.4726 16.3647 19.5444 16.0003 19.5444Z" fill="white"/>
<rect x="0.5" y="1.26953" width="31" height="31" rx="3.5" stroke="#DFE2E6"/>
</svg>
