<svg width="20" height="21" viewBox="0 0 20 21" fill="none" xmlns="http://www.w3.org/2000/svg">
<g clip-path="url(#clip0_453_7464)">
<path d="M11.1293 2.11067C10.5458 1.398 9.45599 1.39801 8.87257 2.11067L8.04601 3.12021C7.98936 3.1894 7.89486 3.21473 7.8112 3.18313L6.59063 2.7221C5.729 2.39666 4.78518 2.94157 4.6362 3.85049L4.42518 5.13805C4.41071 5.2263 4.34154 5.29548 4.25328 5.30994L2.96573 5.52097C2.05681 5.66994 1.51189 6.61376 1.83734 7.47539L2.29836 8.69597C2.32996 8.77963 2.30464 8.87413 2.23545 8.93078L1.2259 9.75729C0.513239 10.3408 0.513241 11.4306 1.2259 12.0141L2.23545 12.8406C2.30464 12.8973 2.32996 12.9918 2.29836 13.0755L1.83734 14.296C1.5119 15.1576 2.0568 16.1015 2.96573 16.2505L4.25328 16.4615C4.34154 16.476 4.41071 16.5451 4.42518 16.6334L4.6362 17.9209C4.78518 18.8298 5.729 19.3747 6.59063 19.0493L7.8112 18.5883C7.89486 18.5567 7.98936 18.582 8.04601 18.6512L8.87257 19.6607C9.45599 20.3734 10.5458 20.3734 11.1293 19.6607L11.9558 18.6512C12.0125 18.582 12.107 18.5567 12.1907 18.5883L13.4112 19.0493C14.2729 19.3747 15.2167 18.8298 15.3657 17.9209L15.5767 16.6334C15.5912 16.5451 15.6603 16.476 15.7486 16.4615L17.0362 16.2505C17.9451 16.1015 18.49 15.1576 18.1646 14.296L17.7035 13.0755C17.6719 12.9918 17.6972 12.8973 17.7664 12.8406L18.776 12.0141C19.4887 11.4306 19.4887 10.3408 18.776 9.75729L17.7664 8.93078C17.6972 8.87413 17.6719 8.77963 17.7035 8.69597L18.1646 7.47539C18.49 6.61376 17.9451 5.66994 17.0362 5.52097L15.7486 5.30994C15.6603 5.29548 15.5912 5.2263 15.5767 5.13805L15.3657 3.85049C15.2167 2.94158 14.2729 2.39665 13.4112 2.7221L12.1907 3.18313C12.107 3.21473 12.0125 3.1894 11.9558 3.12021L11.1293 2.11067Z" fill="#3D88E0"/>
<path fill-rule="evenodd" clip-rule="evenodd" d="M15.0256 7.52729C15.2697 7.77137 15.2697 8.1671 15.0256 8.41118L9.19224 14.2445C9.07507 14.3617 8.91607 14.4276 8.75032 14.4276C8.58457 14.4276 8.42557 14.3617 8.30838 14.2445L4.97505 10.9112C4.73097 10.6671 4.73097 10.2714 4.97505 10.0273C5.21912 9.78324 5.61486 9.78324 5.85893 10.0273L8.75032 12.9187L14.1417 7.52729C14.3858 7.28322 14.7815 7.28322 15.0256 7.52729Z" fill="#FAFAFA"/>
</g>
<defs>
<clipPath id="clip0_453_7464">
<rect width="20" height="20" fill="white" transform="translate(0 0.885742)"/>
</clipPath>
</defs>
</svg>
