<svg width="32" height="33" viewBox="0 0 32 33" fill="none" xmlns="http://www.w3.org/2000/svg">
<rect x="0.5" y="1.26953" width="31" height="31" rx="3.5" fill="#108A00"/>
<g clip-path="url(#clip0_453_7481)">
<path d="M16 7.08203C10.6582 7.08203 6.3125 11.4277 6.3125 16.7695C6.3125 22.1113 10.6582 26.457 16 26.457C21.3418 26.457 25.6875 22.1113 25.6875 16.7695C25.6875 11.4277 21.3418 7.08203 16 7.08203ZM20.158 18.7237C20.2116 18.0791 20.241 17.4244 20.241 16.7695C20.241 16.1147 20.2116 15.4599 20.158 14.8153C22.544 15.3348 23.8125 16.2258 23.8125 16.7695C23.8125 17.3132 22.544 18.2042 20.158 18.7237ZM16 24.582C15.4563 24.582 14.5653 23.3136 14.0458 20.9276C14.6904 20.9811 15.3452 21.0106 16 21.0106C16.6548 21.0106 17.3096 20.9811 17.9542 20.9276C17.4347 23.3136 16.5437 24.582 16 24.582ZM16 19.1356C15.1874 19.1356 14.4409 19.0917 13.749 19.0206C13.6778 18.3286 13.634 17.5822 13.634 16.7695C13.634 15.9569 13.6778 15.2105 13.749 14.5185C14.4409 14.4473 15.1874 14.4035 16 14.4035C16.8126 14.4035 17.5591 14.4473 18.2511 14.5185C18.3222 15.2105 18.366 15.9569 18.366 16.7695C18.366 17.5822 18.3222 18.3286 18.2511 19.0206C17.5591 19.0917 16.8126 19.1356 16 19.1356ZM8.1875 16.7695C8.1875 16.2258 9.45596 15.3348 11.842 14.8153C11.7884 15.4599 11.759 16.1147 11.759 16.7695C11.759 17.4244 11.7884 18.0791 11.842 18.7237C9.45596 18.2042 8.1875 17.3132 8.1875 16.7695ZM16 8.95703C16.5437 8.95703 17.4347 10.2255 17.9542 12.6115C17.3096 12.5579 16.6548 12.5285 16 12.5285C15.3452 12.5285 14.6904 12.5579 14.0458 12.6115C14.5653 10.2255 15.4563 8.95703 16 8.95703ZM23.2462 13.8641C22.3078 13.4205 21.1568 13.0883 19.9045 12.865C19.6812 11.6128 19.3491 10.4617 18.9055 9.52329C20.8782 10.3172 22.4523 11.8913 23.2462 13.8641ZM13.0945 9.52333C12.6509 10.4618 12.3188 11.6128 12.0955 12.865C10.8433 13.0883 9.69225 13.4204 8.75379 13.864C9.54774 11.8913 11.1218 10.3173 13.0945 9.52333ZM8.75383 19.675C9.69229 20.1187 10.8433 20.4507 12.0955 20.6741C12.3188 21.9263 12.6509 23.0772 13.0945 24.0157C11.1218 23.2218 9.54778 21.6477 8.75383 19.675ZM18.9055 24.0157C19.3491 23.0773 19.6812 21.9263 19.9045 20.6741C21.1567 20.4507 22.3077 20.1186 23.2462 19.675C22.4523 21.6477 20.8783 23.2218 18.9055 24.0157Z" fill="white"/>
</g>
<rect x="0.5" y="1.26953" width="31" height="31" rx="3.5" stroke="#DFE2E6"/>
<defs>
<clipPath id="clip0_453_7481">
<rect width="20" height="20" fill="white" transform="translate(6 6.76953)"/>
</clipPath>
</defs>
</svg>
